G75*
%MOIN*%
%OFA0B0*%
%FSLAX25Y25*%
%IPPOS*%
%LPD*%
%AMOC8*
5,1,8,0,0,1.08239X$1,22.5*
%
%ADD10C,0.00000*%
%ADD11C,0.01000*%
%ADD12R,0.01181X0.08268*%
%ADD13C,0.00400*%
%ADD14C,0.00600*%
%ADD15C,0.02174*%
%ADD16C,0.00300*%
D10*
X0001000Y0001000D02*
X0001000Y0195961D01*
X0339701Y0195961D01*
X0339701Y0001000D01*
X0001000Y0001000D01*
D11*
X0275016Y0013244D02*
X0279150Y0016000D01*
X0275016Y0018953D01*
X0275016Y0013244D01*
D12*
X0279346Y0016000D03*
D13*
X0276194Y0021263D02*
X0274392Y0021263D01*
X0273792Y0021863D01*
X0273792Y0024266D01*
X0274392Y0024866D01*
X0276194Y0024866D01*
X0276194Y0021263D01*
X0272511Y0021263D02*
X0270109Y0023665D01*
X0270109Y0024266D01*
X0270709Y0024866D01*
X0271910Y0024866D01*
X0272511Y0024266D01*
X0272511Y0021263D02*
X0270109Y0021263D01*
X0198303Y0024568D02*
X0197703Y0023967D01*
X0195301Y0023967D01*
X0194700Y0024568D01*
X0194700Y0025769D01*
X0195301Y0026369D01*
X0197703Y0026369D01*
X0198303Y0025769D01*
X0198303Y0024568D01*
X0197703Y0027651D02*
X0195301Y0027651D01*
X0194700Y0028251D01*
X0194700Y0029452D01*
X0195301Y0030053D01*
X0194700Y0031334D02*
X0194700Y0033736D01*
X0194700Y0032535D02*
X0198303Y0032535D01*
X0197102Y0031334D01*
X0197703Y0030053D02*
X0198303Y0029452D01*
X0198303Y0028251D01*
X0197703Y0027651D01*
X0196502Y0035017D02*
X0196502Y0036818D01*
X0195901Y0037419D01*
X0195301Y0037419D01*
X0194700Y0036818D01*
X0194700Y0035617D01*
X0195301Y0035017D01*
X0196502Y0035017D01*
X0197703Y0036218D01*
X0198303Y0037419D01*
X0158303Y0037419D02*
X0158303Y0035017D01*
X0156502Y0035017D01*
X0157102Y0036218D01*
X0157102Y0036818D01*
X0156502Y0037419D01*
X0155301Y0037419D01*
X0154700Y0036818D01*
X0154700Y0035617D01*
X0155301Y0035017D01*
X0154700Y0033736D02*
X0154700Y0031334D01*
X0154700Y0032535D02*
X0158303Y0032535D01*
X0157102Y0031334D01*
X0157703Y0030053D02*
X0158303Y0029452D01*
X0158303Y0028251D01*
X0157703Y0027651D01*
X0155301Y0027651D01*
X0154700Y0028251D01*
X0154700Y0029452D01*
X0155301Y0030053D01*
X0155301Y0026369D02*
X0157703Y0026369D01*
X0158303Y0025769D01*
X0158303Y0024568D01*
X0157703Y0023967D01*
X0155301Y0023967D01*
X0154700Y0024568D01*
X0154700Y0025769D01*
X0155301Y0026369D01*
X0118303Y0025769D02*
X0118303Y0024568D01*
X0117703Y0023967D01*
X0115301Y0023967D01*
X0114700Y0024568D01*
X0114700Y0025769D01*
X0115301Y0026369D01*
X0117703Y0026369D01*
X0118303Y0025769D01*
X0117703Y0027651D02*
X0115301Y0027651D01*
X0114700Y0028251D01*
X0114700Y0029452D01*
X0115301Y0030053D01*
X0114700Y0031334D02*
X0114700Y0033736D01*
X0114700Y0032535D02*
X0118303Y0032535D01*
X0117102Y0031334D01*
X0117703Y0030053D02*
X0118303Y0029452D01*
X0118303Y0028251D01*
X0117703Y0027651D01*
X0116502Y0035017D02*
X0116502Y0037419D01*
X0118303Y0036818D02*
X0116502Y0035017D01*
X0118303Y0036818D02*
X0114700Y0036818D01*
X0078303Y0036818D02*
X0077703Y0037419D01*
X0077102Y0037419D01*
X0076502Y0036818D01*
X0075901Y0037419D01*
X0075301Y0037419D01*
X0074700Y0036818D01*
X0074700Y0035617D01*
X0075301Y0035017D01*
X0074700Y0033736D02*
X0074700Y0031334D01*
X0074700Y0032535D02*
X0078303Y0032535D01*
X0077102Y0031334D01*
X0077703Y0030053D02*
X0078303Y0029452D01*
X0078303Y0028251D01*
X0077703Y0027651D01*
X0075301Y0027651D01*
X0074700Y0028251D01*
X0074700Y0029452D01*
X0075301Y0030053D01*
X0075301Y0026369D02*
X0074700Y0025769D01*
X0074700Y0024568D01*
X0075301Y0023967D01*
X0077703Y0023967D01*
X0078303Y0024568D01*
X0078303Y0025769D01*
X0077703Y0026369D01*
X0075301Y0026369D01*
X0077703Y0035017D02*
X0078303Y0035617D01*
X0078303Y0036818D01*
X0076502Y0036818D02*
X0076502Y0036218D01*
X0076801Y0123700D02*
X0076200Y0124301D01*
X0076200Y0125502D01*
X0076801Y0126102D01*
X0079203Y0126102D01*
X0079803Y0125502D01*
X0079803Y0124301D01*
X0079203Y0123700D01*
X0076801Y0123700D01*
X0076801Y0127383D02*
X0076200Y0127984D01*
X0076200Y0129185D01*
X0076801Y0129785D01*
X0076200Y0131066D02*
X0076200Y0133468D01*
X0076200Y0132267D02*
X0079803Y0132267D01*
X0078602Y0131066D01*
X0079203Y0129785D02*
X0079803Y0129185D01*
X0079803Y0127984D01*
X0079203Y0127383D01*
X0076801Y0127383D01*
X0076200Y0134749D02*
X0078602Y0137151D01*
X0079203Y0137151D01*
X0079803Y0136551D01*
X0079803Y0135350D01*
X0079203Y0134749D01*
X0076200Y0134749D02*
X0076200Y0137151D01*
X0116200Y0137151D02*
X0116200Y0134749D01*
X0116200Y0135950D02*
X0119803Y0135950D01*
X0118602Y0134749D01*
X0116200Y0133468D02*
X0116200Y0131066D01*
X0116200Y0132267D02*
X0119803Y0132267D01*
X0118602Y0131066D01*
X0119203Y0129785D02*
X0119803Y0129185D01*
X0119803Y0127984D01*
X0119203Y0127383D01*
X0116801Y0127383D01*
X0116200Y0127984D01*
X0116200Y0129185D01*
X0116801Y0129785D01*
X0116801Y0126102D02*
X0119203Y0126102D01*
X0119803Y0125502D01*
X0119803Y0124301D01*
X0119203Y0123700D01*
X0116801Y0123700D01*
X0116200Y0124301D01*
X0116200Y0125502D01*
X0116801Y0126102D01*
X0156200Y0125502D02*
X0156801Y0126102D01*
X0159203Y0126102D01*
X0159803Y0125502D01*
X0159803Y0124301D01*
X0159203Y0123700D01*
X0156801Y0123700D01*
X0156200Y0124301D01*
X0156200Y0125502D01*
X0156801Y0127383D02*
X0156200Y0127984D01*
X0156200Y0129185D01*
X0156801Y0129785D01*
X0156200Y0131066D02*
X0156200Y0133468D01*
X0156200Y0132267D02*
X0159803Y0132267D01*
X0158602Y0131066D01*
X0159203Y0129785D02*
X0159803Y0129185D01*
X0159803Y0127984D01*
X0159203Y0127383D01*
X0156801Y0127383D01*
X0156801Y0134749D02*
X0159203Y0137151D01*
X0156801Y0137151D01*
X0156200Y0136551D01*
X0156200Y0135350D01*
X0156801Y0134749D01*
X0159203Y0134749D01*
X0159803Y0135350D01*
X0159803Y0136551D01*
X0159203Y0137151D01*
X0196200Y0132868D02*
X0196200Y0131667D01*
X0196801Y0131066D01*
X0196801Y0129785D02*
X0196200Y0129185D01*
X0196200Y0127984D01*
X0196801Y0127383D01*
X0199203Y0127383D01*
X0199803Y0127984D01*
X0199803Y0129185D01*
X0199203Y0129785D01*
X0199203Y0131066D02*
X0198602Y0131066D01*
X0198002Y0131667D01*
X0198002Y0133468D01*
X0199203Y0133468D02*
X0199803Y0132868D01*
X0199803Y0131667D01*
X0199203Y0131066D01*
X0199203Y0133468D02*
X0196801Y0133468D01*
X0196200Y0132868D01*
X0196801Y0126102D02*
X0199203Y0126102D01*
X0199803Y0125502D01*
X0199803Y0124301D01*
X0199203Y0123700D01*
X0196801Y0123700D01*
X0196200Y0124301D01*
X0196200Y0125502D01*
X0196801Y0126102D01*
D14*
X0191335Y0123012D02*
X0225370Y0123012D01*
X0225764Y0120980D02*
X0225764Y0146020D01*
X0191335Y0146020D01*
X0191335Y0123012D01*
X0191335Y0120980D01*
X0225764Y0120980D01*
X0185764Y0120980D02*
X0185764Y0146020D01*
X0151335Y0146020D01*
X0151335Y0123012D01*
X0185370Y0123012D01*
X0185764Y0120980D02*
X0151335Y0120980D01*
X0151335Y0123012D01*
X0145764Y0120980D02*
X0145764Y0146020D01*
X0111335Y0146020D01*
X0111335Y0123012D01*
X0145370Y0123012D01*
X0145764Y0120980D02*
X0111335Y0120980D01*
X0111335Y0123012D01*
X0105764Y0120980D02*
X0105764Y0146020D01*
X0071335Y0146020D01*
X0071335Y0123012D01*
X0105370Y0123012D01*
X0105764Y0120980D02*
X0071335Y0120980D01*
X0071335Y0123012D01*
X0071236Y0048520D02*
X0071236Y0023480D01*
X0105665Y0023480D01*
X0105665Y0046488D01*
X0071630Y0046488D01*
X0071236Y0048520D02*
X0105665Y0048520D01*
X0105665Y0046488D01*
X0111236Y0048520D02*
X0111236Y0023480D01*
X0145665Y0023480D01*
X0145665Y0046488D01*
X0111630Y0046488D01*
X0111236Y0048520D02*
X0145665Y0048520D01*
X0145665Y0046488D01*
X0151236Y0048520D02*
X0151236Y0023480D01*
X0185665Y0023480D01*
X0185665Y0046488D01*
X0151630Y0046488D01*
X0151236Y0048520D02*
X0185665Y0048520D01*
X0185665Y0046488D01*
X0191236Y0048520D02*
X0191236Y0023480D01*
X0225665Y0023480D01*
X0225665Y0046488D01*
X0191630Y0046488D01*
X0191236Y0048520D02*
X0225665Y0048520D01*
X0225665Y0046488D01*
D15*
X0194720Y0043874D03*
X0154720Y0043874D03*
X0114720Y0043874D03*
X0074720Y0043874D03*
X0102280Y0125626D03*
X0142280Y0125626D03*
X0182280Y0125626D03*
X0222280Y0125626D03*
D16*
X0215236Y0109936D02*
X0212767Y0109936D01*
X0212150Y0109318D01*
X0212150Y0108084D01*
X0212767Y0107467D01*
X0212150Y0106252D02*
X0213384Y0105018D01*
X0213384Y0105635D02*
X0213384Y0103784D01*
X0212150Y0103784D02*
X0215853Y0103784D01*
X0215853Y0105635D01*
X0215236Y0106252D01*
X0214002Y0106252D01*
X0213384Y0105635D01*
X0214619Y0107467D02*
X0214002Y0108084D01*
X0214002Y0109936D01*
X0215236Y0109936D02*
X0215853Y0109318D01*
X0215853Y0108084D01*
X0215236Y0107467D01*
X0214619Y0107467D01*
X0175853Y0108084D02*
X0175853Y0109318D01*
X0175236Y0109936D01*
X0172767Y0107467D01*
X0172150Y0108084D01*
X0172150Y0109318D01*
X0172767Y0109936D01*
X0175236Y0109936D01*
X0175853Y0108084D02*
X0175236Y0107467D01*
X0172767Y0107467D01*
X0172150Y0106252D02*
X0172150Y0103784D01*
X0172150Y0102569D02*
X0173384Y0101335D01*
X0173384Y0101952D02*
X0173384Y0100101D01*
X0172150Y0100101D02*
X0175853Y0100101D01*
X0175853Y0101952D01*
X0175236Y0102569D01*
X0174002Y0102569D01*
X0173384Y0101952D01*
X0174619Y0103784D02*
X0175853Y0105018D01*
X0172150Y0105018D01*
X0135853Y0105018D02*
X0134619Y0103784D01*
X0135236Y0102569D02*
X0134002Y0102569D01*
X0133384Y0101952D01*
X0133384Y0100101D01*
X0133384Y0101335D02*
X0132150Y0102569D01*
X0132150Y0103784D02*
X0132150Y0106252D01*
X0132150Y0107467D02*
X0132150Y0109936D01*
X0132150Y0108701D02*
X0135853Y0108701D01*
X0134619Y0107467D01*
X0135853Y0105018D02*
X0132150Y0105018D01*
X0135236Y0102569D02*
X0135853Y0101952D01*
X0135853Y0100101D01*
X0132150Y0100101D01*
X0095853Y0100101D02*
X0095853Y0101952D01*
X0095236Y0102569D01*
X0094002Y0102569D01*
X0093384Y0101952D01*
X0093384Y0100101D01*
X0093384Y0101335D02*
X0092150Y0102569D01*
X0092150Y0103784D02*
X0092150Y0106252D01*
X0092150Y0107467D02*
X0094619Y0109936D01*
X0095236Y0109936D01*
X0095853Y0109318D01*
X0095853Y0108084D01*
X0095236Y0107467D01*
X0095853Y0105018D02*
X0092150Y0105018D01*
X0092150Y0107467D02*
X0092150Y0109936D01*
X0095853Y0105018D02*
X0094619Y0103784D01*
X0095853Y0100101D02*
X0092150Y0100101D01*
X0109650Y0069318D02*
X0113353Y0069318D01*
X0111502Y0067467D01*
X0111502Y0069936D01*
X0109650Y0066252D02*
X0109650Y0063784D01*
X0109650Y0062569D02*
X0110884Y0061335D01*
X0110884Y0061952D02*
X0110884Y0060101D01*
X0109650Y0060101D02*
X0113353Y0060101D01*
X0113353Y0061952D01*
X0112736Y0062569D01*
X0111502Y0062569D01*
X0110884Y0061952D01*
X0112119Y0063784D02*
X0113353Y0065018D01*
X0109650Y0065018D01*
X0073353Y0065018D02*
X0072119Y0063784D01*
X0072736Y0062569D02*
X0071502Y0062569D01*
X0070884Y0061952D01*
X0070884Y0060101D01*
X0070884Y0061335D02*
X0069650Y0062569D01*
X0069650Y0063784D02*
X0069650Y0066252D01*
X0069650Y0065018D02*
X0073353Y0065018D01*
X0072736Y0067467D02*
X0073353Y0068084D01*
X0073353Y0069318D01*
X0072736Y0069936D01*
X0072119Y0069936D01*
X0071502Y0069318D01*
X0070884Y0069936D01*
X0070267Y0069936D01*
X0069650Y0069318D01*
X0069650Y0068084D01*
X0070267Y0067467D01*
X0071502Y0068701D02*
X0071502Y0069318D01*
X0072736Y0062569D02*
X0073353Y0061952D01*
X0073353Y0060101D01*
X0069650Y0060101D01*
X0149650Y0060101D02*
X0153353Y0060101D01*
X0153353Y0061952D01*
X0152736Y0062569D01*
X0151502Y0062569D01*
X0150884Y0061952D01*
X0150884Y0060101D01*
X0150884Y0061335D02*
X0149650Y0062569D01*
X0149650Y0063784D02*
X0149650Y0066252D01*
X0149650Y0065018D02*
X0153353Y0065018D01*
X0152119Y0063784D01*
X0151502Y0067467D02*
X0152119Y0068701D01*
X0152119Y0069318D01*
X0151502Y0069936D01*
X0150267Y0069936D01*
X0149650Y0069318D01*
X0149650Y0068084D01*
X0150267Y0067467D01*
X0151502Y0067467D02*
X0153353Y0067467D01*
X0153353Y0069936D01*
X0189650Y0069318D02*
X0189650Y0068084D01*
X0190267Y0067467D01*
X0191502Y0067467D01*
X0191502Y0069318D01*
X0190884Y0069936D01*
X0190267Y0069936D01*
X0189650Y0069318D01*
X0191502Y0067467D02*
X0192736Y0068701D01*
X0193353Y0069936D01*
X0193353Y0065018D02*
X0189650Y0065018D01*
X0189650Y0063784D02*
X0189650Y0066252D01*
X0192119Y0063784D02*
X0193353Y0065018D01*
X0192736Y0062569D02*
X0191502Y0062569D01*
X0190884Y0061952D01*
X0190884Y0060101D01*
X0190884Y0061335D02*
X0189650Y0062569D01*
X0189650Y0060101D02*
X0193353Y0060101D01*
X0193353Y0061952D01*
X0192736Y0062569D01*
M02*
