%
M48
M72
T01C0.02362
T02C0.03150
T03C0.04000
T04C0.04700
%
T01
X88500Y71000
X128500Y71000
X168500Y71000
X208500Y71000
X253500Y91000
X258500Y91000
X263500Y91000
X268500Y91000
X266000Y101000
X261000Y101000
X256000Y101000
X251000Y101000
X208500Y126000
X168500Y126000
X128500Y126000
X88500Y126000
X283500Y66000
X286000Y71000
T02
X208500Y33500
X168500Y33500
X128500Y33500
X81000Y36000
X81000Y161000
X128500Y163500
X168500Y163500
X208500Y163500
T03
X311000Y101000
X321000Y101000
X331000Y101000
X331000Y86000
X321000Y86000
X311000Y86000
X311000Y71000
X321000Y71000
X331000Y71000
T04
X18500Y28500
X18500Y48500
X18500Y68500
X18500Y88500
X18500Y108500
X18500Y128500
X18500Y148500
X18500Y168500
X323500Y161000
X323500Y141000
X323500Y121000
X323500Y181000
X323500Y36000
X323500Y16000
M30
