G75*
%MOIN*%
%OFA0B0*%
%FSLAX25Y25*%
%IPPOS*%
%LPD*%
%AMOC8*
5,1,8,0,0,1.08239X$1,22.5*
%
%ADD10C,0.00000*%
%ADD11R,0.07087X0.06693*%
%ADD12C,0.07050*%
%ADD13R,0.01575X0.05906*%
%ADD14R,0.07008X0.05984*%
%ADD15R,0.05906X0.05118*%
%ADD16R,0.05118X0.05906*%
%ADD17C,0.06000*%
%ADD18C,0.01200*%
%ADD19C,0.01000*%
%ADD20C,0.03562*%
%ADD21C,0.01600*%
%ADD22C,0.04724*%
D10*
X0001000Y0001000D02*
X0001000Y0195961D01*
X0339701Y0195961D01*
X0339701Y0001000D01*
X0001000Y0001000D01*
D11*
X0267929Y0016000D03*
X0284071Y0016000D03*
D12*
X0319975Y0016000D02*
X0327025Y0016000D01*
X0327025Y0036000D02*
X0319975Y0036000D01*
X0319975Y0121000D02*
X0327025Y0121000D01*
X0327025Y0141000D02*
X0319975Y0141000D01*
X0319975Y0161000D02*
X0327025Y0161000D01*
X0327025Y0181000D02*
X0319975Y0181000D01*
X0022025Y0168500D02*
X0014975Y0168500D01*
X0014975Y0148500D02*
X0022025Y0148500D01*
X0022025Y0128500D02*
X0014975Y0128500D01*
X0014975Y0108500D02*
X0022025Y0108500D01*
X0022025Y0088500D02*
X0014975Y0088500D01*
X0014975Y0068500D02*
X0022025Y0068500D01*
X0022025Y0048500D02*
X0014975Y0048500D01*
X0014975Y0028500D02*
X0022025Y0028500D01*
D13*
X0251866Y0081728D03*
X0254425Y0081728D03*
X0256984Y0081728D03*
X0259543Y0081728D03*
X0262102Y0081728D03*
X0264661Y0081728D03*
X0267220Y0081728D03*
X0269780Y0081728D03*
X0272339Y0081728D03*
X0274898Y0081728D03*
X0277457Y0081728D03*
X0280016Y0081728D03*
X0282575Y0081728D03*
X0285134Y0081728D03*
X0285134Y0110272D03*
X0282575Y0110272D03*
X0280016Y0110272D03*
X0277457Y0110272D03*
X0274898Y0110272D03*
X0272339Y0110272D03*
X0269780Y0110272D03*
X0267220Y0110272D03*
X0264661Y0110272D03*
X0262102Y0110272D03*
X0259543Y0110272D03*
X0256984Y0110272D03*
X0254425Y0110272D03*
X0251866Y0110272D03*
D14*
X0218500Y0081787D03*
X0208500Y0081787D03*
X0198500Y0081787D03*
X0178500Y0081787D03*
X0168500Y0081787D03*
X0158500Y0081787D03*
X0138500Y0081787D03*
X0128500Y0081787D03*
X0118500Y0081787D03*
X0098500Y0081787D03*
X0088500Y0081787D03*
X0078500Y0081787D03*
X0078500Y0045213D03*
X0088500Y0045213D03*
X0098500Y0045213D03*
X0118500Y0045213D03*
X0128500Y0045213D03*
X0138500Y0045213D03*
X0158500Y0045213D03*
X0168500Y0045213D03*
X0178500Y0045213D03*
X0198500Y0045213D03*
X0208500Y0045213D03*
X0218500Y0045213D03*
X0218500Y0142713D03*
X0208500Y0142713D03*
X0198500Y0142713D03*
X0178500Y0142713D03*
X0168500Y0142713D03*
X0158500Y0142713D03*
X0138500Y0142713D03*
X0128500Y0142713D03*
X0118500Y0142713D03*
X0098500Y0142713D03*
X0088500Y0142713D03*
X0078500Y0142713D03*
X0078500Y0179287D03*
X0088500Y0179287D03*
X0098500Y0179287D03*
X0118500Y0179287D03*
X0128500Y0179287D03*
X0138500Y0179287D03*
X0158500Y0179287D03*
X0168500Y0179287D03*
X0178500Y0179287D03*
X0198500Y0179287D03*
X0208500Y0179287D03*
X0218500Y0179287D03*
D15*
X0198500Y0132240D03*
X0198500Y0124760D03*
X0158500Y0124760D03*
X0158500Y0132240D03*
X0118500Y0132240D03*
X0118500Y0124760D03*
X0078500Y0124760D03*
X0078500Y0132240D03*
D16*
X0099760Y0091000D03*
X0107240Y0091000D03*
X0139760Y0091000D03*
X0147240Y0091000D03*
X0179760Y0091000D03*
X0187240Y0091000D03*
X0219760Y0091000D03*
X0227240Y0091000D03*
D17*
X0311000Y0089000D02*
X0311000Y0083000D01*
X0321000Y0083000D02*
X0321000Y0089000D01*
X0331000Y0089000D02*
X0331000Y0083000D01*
X0331000Y0074000D02*
X0331000Y0068000D01*
X0321000Y0068000D02*
X0321000Y0074000D01*
X0311000Y0074000D02*
X0311000Y0068000D01*
X0311000Y0098000D02*
X0311000Y0104000D01*
X0321000Y0104000D02*
X0321000Y0098000D01*
X0331000Y0098000D02*
X0331000Y0104000D01*
D18*
X0333500Y0103500D02*
X0331000Y0101000D01*
X0331000Y0086000D01*
X0331000Y0071000D01*
X0331000Y0061000D01*
X0328500Y0058500D01*
X0281000Y0058500D01*
X0274898Y0064602D01*
X0274898Y0081728D01*
X0272339Y0081728D02*
X0272339Y0087339D01*
X0276000Y0091000D01*
X0278500Y0091000D01*
X0283500Y0091000D01*
X0303500Y0071000D01*
X0311000Y0071000D01*
X0278500Y0091000D02*
X0277450Y0092050D01*
X0277450Y0107200D01*
X0333500Y0103500D02*
X0333500Y0131000D01*
X0323500Y0141000D01*
X0313500Y0151000D01*
X0211000Y0151000D01*
X0171000Y0151000D01*
X0131000Y0151000D01*
X0091000Y0151000D01*
X0208500Y0142713D02*
X0210213Y0141000D01*
X0211000Y0141000D01*
D19*
X0208500Y0143500D01*
X0208500Y0148500D01*
X0211000Y0151000D01*
X0208500Y0142713D02*
X0208500Y0126000D01*
X0201000Y0121000D02*
X0198500Y0123500D01*
X0198500Y0124760D01*
X0199760Y0123500D01*
X0201000Y0121000D02*
X0226000Y0121000D01*
X0231000Y0126000D01*
X0266000Y0126000D01*
X0269780Y0122220D01*
X0269780Y0110272D01*
X0267220Y0110272D02*
X0267220Y0102220D01*
X0266000Y0101000D01*
X0262102Y0102102D02*
X0261000Y0101000D01*
X0262102Y0102102D02*
X0262102Y0110272D01*
X0259543Y0110272D02*
X0259543Y0117457D01*
X0256000Y0121000D01*
X0236000Y0121000D01*
X0231000Y0116000D01*
X0127260Y0116000D01*
X0118500Y0124760D01*
X0128500Y0126000D02*
X0128500Y0142713D01*
X0128500Y0148500D01*
X0131000Y0151000D01*
X0118500Y0142713D02*
X0118500Y0132240D01*
X0088500Y0126000D02*
X0088500Y0142713D01*
X0088500Y0148500D01*
X0091000Y0151000D01*
X0078500Y0142713D02*
X0078500Y0132240D01*
X0078500Y0124760D02*
X0089760Y0113500D01*
X0233500Y0113500D01*
X0238500Y0118500D01*
X0251000Y0118500D01*
X0254425Y0115075D01*
X0254425Y0110272D01*
X0251866Y0110272D02*
X0251866Y0101866D01*
X0251000Y0101000D01*
X0256000Y0101000D02*
X0256984Y0101984D01*
X0256984Y0110272D01*
X0264661Y0110272D02*
X0264661Y0119839D01*
X0261000Y0123500D01*
X0233500Y0123500D01*
X0228500Y0118500D01*
X0164760Y0118500D01*
X0158500Y0124760D01*
X0168500Y0126000D02*
X0168500Y0142713D01*
X0168500Y0148500D01*
X0171000Y0151000D01*
X0158500Y0142713D02*
X0158500Y0132240D01*
X0198500Y0132240D02*
X0198500Y0142713D01*
X0236000Y0101000D02*
X0117240Y0101000D01*
X0107240Y0091000D01*
X0099760Y0091000D02*
X0098500Y0089740D01*
X0098500Y0081787D01*
X0088500Y0081787D02*
X0088500Y0071000D01*
X0128500Y0071000D02*
X0128500Y0081787D01*
X0138500Y0081787D02*
X0138500Y0089740D01*
X0139760Y0091000D01*
X0147240Y0091000D02*
X0154740Y0098500D01*
X0233500Y0098500D01*
X0238500Y0093500D01*
X0238500Y0076000D01*
X0243500Y0071000D01*
X0253500Y0071000D01*
X0256984Y0074484D01*
X0256984Y0081728D01*
X0254425Y0081728D02*
X0254425Y0090075D01*
X0253500Y0091000D01*
X0258500Y0091000D02*
X0259543Y0089957D01*
X0259543Y0081728D01*
X0262102Y0081728D02*
X0262102Y0072102D01*
X0258500Y0068500D01*
X0241000Y0068500D01*
X0236000Y0073500D01*
X0236000Y0091000D01*
X0231000Y0096000D01*
X0191000Y0096000D01*
X0187240Y0092240D01*
X0187240Y0091000D01*
X0179760Y0091000D02*
X0178500Y0089740D01*
X0178500Y0081787D01*
X0168500Y0081787D02*
X0168500Y0071000D01*
X0138500Y0081787D02*
X0138500Y0083500D01*
X0208500Y0081787D02*
X0208500Y0071000D01*
X0218500Y0081787D02*
X0218500Y0089740D01*
X0219760Y0091000D01*
X0221000Y0091000D01*
X0227240Y0091000D02*
X0231000Y0091000D01*
X0233500Y0088500D01*
X0233500Y0071000D01*
X0238500Y0066000D01*
X0263500Y0066000D01*
X0267220Y0069720D01*
X0267220Y0081728D01*
X0264661Y0081728D02*
X0264661Y0089839D01*
X0263500Y0091000D01*
X0268500Y0091000D02*
X0269780Y0089720D01*
X0269780Y0081728D01*
X0272339Y0081728D02*
X0272500Y0082000D01*
X0280016Y0081728D02*
X0280016Y0069484D01*
X0283500Y0066000D01*
X0286000Y0071000D02*
X0282575Y0074425D01*
X0282575Y0081728D01*
X0293500Y0093500D02*
X0313500Y0093500D01*
X0321000Y0086000D01*
X0313500Y0078500D02*
X0321000Y0071000D01*
X0313500Y0078500D02*
X0303500Y0078500D01*
X0280016Y0101984D01*
X0280016Y0110272D01*
X0282575Y0110272D02*
X0282575Y0104425D01*
X0293500Y0093500D01*
X0277450Y0107200D02*
X0277450Y0109900D01*
X0277457Y0110272D01*
X0285134Y0110272D02*
X0311728Y0110272D01*
X0321000Y0101000D01*
X0251866Y0081728D02*
X0251866Y0076866D01*
X0248500Y0073500D01*
X0246000Y0073500D01*
X0241000Y0078500D01*
X0241000Y0096000D01*
X0236000Y0101000D01*
D20*
X0251000Y0101000D03*
X0256000Y0101000D03*
X0261000Y0101000D03*
X0266000Y0101000D03*
X0263500Y0091000D03*
X0268500Y0091000D03*
X0258500Y0091000D03*
X0253500Y0091000D03*
X0286000Y0071000D03*
X0283500Y0066000D03*
X0208500Y0071000D03*
X0168500Y0071000D03*
X0128500Y0071000D03*
X0088500Y0071000D03*
X0088500Y0126000D03*
X0128500Y0126000D03*
X0168500Y0126000D03*
X0208500Y0126000D03*
D21*
X0208500Y0163500D02*
X0216000Y0163500D01*
X0218500Y0166000D01*
X0218500Y0179287D01*
X0198500Y0179287D02*
X0198500Y0188500D01*
X0196000Y0191000D01*
X0156000Y0191000D01*
X0116000Y0191000D01*
X0076000Y0191000D01*
X0068500Y0191000D01*
X0056000Y0178500D01*
X0056000Y0076000D01*
X0076000Y0056000D01*
X0101000Y0056000D01*
X0141000Y0056000D01*
X0181000Y0056000D01*
X0221000Y0056000D01*
X0227929Y0056000D01*
X0267929Y0016000D01*
X0284071Y0016000D02*
X0323500Y0016000D01*
X0218500Y0045213D02*
X0218500Y0053500D01*
X0221000Y0056000D01*
X0198500Y0045213D02*
X0198500Y0031000D01*
X0198500Y0008500D01*
X0196000Y0006000D01*
X0041000Y0006000D01*
X0018500Y0028500D01*
X0018500Y0048500D02*
X0051000Y0016000D01*
X0156000Y0016000D01*
X0158500Y0018500D01*
X0158500Y0031000D01*
X0161000Y0033500D01*
X0168500Y0033500D01*
X0158500Y0031000D02*
X0158500Y0045213D01*
X0138500Y0045213D02*
X0138500Y0053500D01*
X0141000Y0056000D01*
X0118500Y0045213D02*
X0118500Y0031000D01*
X0118500Y0028500D01*
X0116000Y0026000D01*
X0061000Y0026000D01*
X0018500Y0068500D01*
X0018500Y0088500D02*
X0061787Y0045213D01*
X0078500Y0045213D01*
X0078500Y0038500D01*
X0081000Y0036000D01*
X0076787Y0043500D02*
X0078500Y0045213D01*
X0098500Y0045213D02*
X0098500Y0053500D01*
X0101000Y0056000D01*
X0121000Y0033500D02*
X0118500Y0031000D01*
X0121000Y0033500D02*
X0128500Y0033500D01*
X0178500Y0045213D02*
X0178500Y0053500D01*
X0181000Y0056000D01*
X0201000Y0033500D02*
X0198500Y0031000D01*
X0201000Y0033500D02*
X0208500Y0033500D01*
X0096000Y0161000D02*
X0081000Y0161000D01*
X0096000Y0161000D02*
X0098500Y0163500D01*
X0098500Y0179287D01*
X0116000Y0179287D02*
X0118500Y0179287D01*
X0118500Y0188500D01*
X0116000Y0191000D01*
X0138500Y0179287D02*
X0138500Y0166000D01*
X0136000Y0163500D01*
X0128500Y0163500D01*
X0156000Y0179287D02*
X0158500Y0179287D01*
X0158500Y0188500D01*
X0156000Y0191000D01*
X0178500Y0179287D02*
X0178500Y0166000D01*
X0176000Y0163500D01*
X0168500Y0163500D01*
X0078500Y0179287D02*
X0078500Y0188500D01*
X0076000Y0191000D01*
D22*
X0081000Y0161000D03*
X0128500Y0163500D03*
X0168500Y0163500D03*
X0208500Y0163500D03*
X0081000Y0036000D03*
X0128500Y0033500D03*
X0168500Y0033500D03*
X0208500Y0033500D03*
M02*
