G75*
%MOIN*%
%OFA0B0*%
%FSLAX25Y25*%
%IPPOS*%
%LPD*%
%AMOC8*
5,1,8,0,0,1.08239X$1,22.5*
%
%ADD10C,0.00000*%
%ADD11C,0.00400*%
%ADD12C,0.00300*%
%ADD13C,0.01000*%
%ADD14R,0.01181X0.08268*%
%ADD15C,0.00600*%
%ADD16C,0.00500*%
%ADD17C,0.00800*%
%ADD18C,0.02174*%
D10*
X0001000Y0001000D02*
X0001000Y0195961D01*
X0339701Y0195961D01*
X0339701Y0001000D01*
X0001000Y0001000D01*
D11*
X0041200Y0021790D02*
X0041967Y0021023D01*
X0042735Y0021023D01*
X0043502Y0021790D01*
X0043502Y0023325D01*
X0044269Y0024092D01*
X0045037Y0024092D01*
X0045804Y0023325D01*
X0045804Y0021790D01*
X0045037Y0021023D01*
X0044269Y0021023D01*
X0043502Y0021790D01*
X0043502Y0023325D02*
X0042735Y0024092D01*
X0041967Y0024092D01*
X0041200Y0023325D01*
X0041200Y0021790D01*
X0043502Y0025627D02*
X0042735Y0026394D01*
X0042735Y0028696D01*
X0041200Y0028696D02*
X0045804Y0028696D01*
X0045804Y0026394D01*
X0045037Y0025627D01*
X0043502Y0025627D01*
X0045804Y0030231D02*
X0045804Y0033300D01*
X0041200Y0033300D01*
X0043502Y0033300D02*
X0043502Y0031765D01*
X0045037Y0041023D02*
X0041967Y0044092D01*
X0041200Y0044092D01*
X0043502Y0045627D02*
X0042735Y0046394D01*
X0042735Y0048696D01*
X0041200Y0048696D02*
X0045804Y0048696D01*
X0045804Y0046394D01*
X0045037Y0045627D01*
X0043502Y0045627D01*
X0045804Y0044092D02*
X0045804Y0041023D01*
X0045037Y0041023D01*
X0045804Y0050231D02*
X0045804Y0053300D01*
X0041200Y0053300D01*
X0043502Y0053300D02*
X0043502Y0051765D01*
X0042735Y0061023D02*
X0043502Y0061790D01*
X0043502Y0064092D01*
X0041967Y0064092D01*
X0041200Y0063325D01*
X0041200Y0061790D01*
X0041967Y0061023D01*
X0042735Y0061023D01*
X0045037Y0062558D02*
X0043502Y0064092D01*
X0043502Y0065627D02*
X0042735Y0066394D01*
X0042735Y0068696D01*
X0041200Y0068696D02*
X0045804Y0068696D01*
X0045804Y0066394D01*
X0045037Y0065627D01*
X0043502Y0065627D01*
X0045037Y0062558D02*
X0045804Y0061023D01*
X0045804Y0070231D02*
X0045804Y0073300D01*
X0041200Y0073300D01*
X0043502Y0073300D02*
X0043502Y0071765D01*
X0043502Y0081023D02*
X0041967Y0081023D01*
X0041200Y0081790D01*
X0041200Y0083325D01*
X0041967Y0084092D01*
X0043502Y0084092D02*
X0044269Y0082558D01*
X0044269Y0081790D01*
X0043502Y0081023D01*
X0045804Y0081023D02*
X0045804Y0084092D01*
X0043502Y0084092D01*
X0043502Y0085627D02*
X0042735Y0086394D01*
X0042735Y0088696D01*
X0041200Y0088696D02*
X0045804Y0088696D01*
X0045804Y0086394D01*
X0045037Y0085627D01*
X0043502Y0085627D01*
X0045804Y0090231D02*
X0045804Y0093300D01*
X0041200Y0093300D01*
X0043502Y0093300D02*
X0043502Y0091765D01*
X0043502Y0101023D02*
X0043502Y0104092D01*
X0045804Y0101790D01*
X0041200Y0101790D01*
X0043502Y0105627D02*
X0042735Y0106394D01*
X0042735Y0108696D01*
X0041200Y0108696D02*
X0045804Y0108696D01*
X0045804Y0106394D01*
X0045037Y0105627D01*
X0043502Y0105627D01*
X0045804Y0110231D02*
X0045804Y0113300D01*
X0041200Y0113300D01*
X0043502Y0113300D02*
X0043502Y0111765D01*
X0044269Y0121023D02*
X0043502Y0121790D01*
X0042735Y0121023D01*
X0041967Y0121023D01*
X0041200Y0121790D01*
X0041200Y0123325D01*
X0041967Y0124092D01*
X0043502Y0122558D02*
X0043502Y0121790D01*
X0044269Y0121023D02*
X0045037Y0121023D01*
X0045804Y0121790D01*
X0045804Y0123325D01*
X0045037Y0124092D01*
X0045037Y0125627D02*
X0043502Y0125627D01*
X0042735Y0126394D01*
X0042735Y0128696D01*
X0041200Y0128696D02*
X0045804Y0128696D01*
X0045804Y0126394D01*
X0045037Y0125627D01*
X0045804Y0130231D02*
X0045804Y0133300D01*
X0041200Y0133300D01*
X0043502Y0133300D02*
X0043502Y0131765D01*
X0044269Y0141023D02*
X0045037Y0141023D01*
X0045804Y0141790D01*
X0045804Y0143325D01*
X0045037Y0144092D01*
X0045037Y0145627D02*
X0043502Y0145627D01*
X0042735Y0146394D01*
X0042735Y0148696D01*
X0041200Y0148696D02*
X0045804Y0148696D01*
X0045804Y0146394D01*
X0045037Y0145627D01*
X0041200Y0144092D02*
X0044269Y0141023D01*
X0041200Y0141023D02*
X0041200Y0144092D01*
X0045804Y0150231D02*
X0045804Y0153300D01*
X0041200Y0153300D01*
X0043502Y0153300D02*
X0043502Y0151765D01*
X0041200Y0161023D02*
X0041200Y0164092D01*
X0041200Y0162558D02*
X0045804Y0162558D01*
X0044269Y0164092D01*
X0043502Y0165627D02*
X0042735Y0166394D01*
X0042735Y0168696D01*
X0041200Y0168696D02*
X0045804Y0168696D01*
X0045804Y0166394D01*
X0045037Y0165627D01*
X0043502Y0165627D01*
X0045804Y0170231D02*
X0045804Y0173300D01*
X0041200Y0173300D01*
X0043502Y0173300D02*
X0043502Y0171765D01*
X0073700Y0165199D02*
X0073700Y0163998D01*
X0074301Y0163398D01*
X0076703Y0163398D01*
X0077303Y0163998D01*
X0077303Y0165199D01*
X0076703Y0165800D01*
X0074301Y0165800D01*
X0073700Y0165199D01*
X0074301Y0162117D02*
X0073700Y0161516D01*
X0073700Y0160315D01*
X0074301Y0159715D01*
X0075502Y0158434D02*
X0075502Y0156032D01*
X0077303Y0156632D02*
X0075502Y0158434D01*
X0076703Y0159715D02*
X0077303Y0160315D01*
X0077303Y0161516D01*
X0076703Y0162117D01*
X0074301Y0162117D01*
X0073700Y0156632D02*
X0077303Y0156632D01*
X0113700Y0156632D02*
X0113700Y0157833D01*
X0114301Y0158434D01*
X0114301Y0159715D02*
X0113700Y0160315D01*
X0113700Y0161516D01*
X0114301Y0162117D01*
X0116703Y0162117D01*
X0117303Y0161516D01*
X0117303Y0160315D01*
X0116703Y0159715D01*
X0116703Y0158434D02*
X0117303Y0157833D01*
X0117303Y0156632D01*
X0116703Y0156032D01*
X0116102Y0156032D01*
X0115502Y0156632D01*
X0114901Y0156032D01*
X0114301Y0156032D01*
X0113700Y0156632D01*
X0115502Y0156632D02*
X0115502Y0157233D01*
X0114301Y0163398D02*
X0116703Y0163398D01*
X0117303Y0163998D01*
X0117303Y0165199D01*
X0116703Y0165800D01*
X0114301Y0165800D01*
X0113700Y0165199D01*
X0113700Y0163998D01*
X0114301Y0163398D01*
X0153700Y0163998D02*
X0154301Y0163398D01*
X0156703Y0163398D01*
X0157303Y0163998D01*
X0157303Y0165199D01*
X0156703Y0165800D01*
X0154301Y0165800D01*
X0153700Y0165199D01*
X0153700Y0163998D01*
X0154301Y0162117D02*
X0153700Y0161516D01*
X0153700Y0160315D01*
X0154301Y0159715D01*
X0153700Y0158434D02*
X0156102Y0156032D01*
X0156703Y0156032D01*
X0157303Y0156632D01*
X0157303Y0157833D01*
X0156703Y0158434D01*
X0156703Y0159715D02*
X0157303Y0160315D01*
X0157303Y0161516D01*
X0156703Y0162117D01*
X0154301Y0162117D01*
X0153700Y0158434D02*
X0153700Y0156032D01*
X0193700Y0156032D02*
X0193700Y0158434D01*
X0193700Y0157233D02*
X0197303Y0157233D01*
X0196102Y0158434D01*
X0196703Y0159715D02*
X0197303Y0160315D01*
X0197303Y0161516D01*
X0196703Y0162117D01*
X0194301Y0162117D01*
X0193700Y0161516D01*
X0193700Y0160315D01*
X0194301Y0159715D01*
X0194301Y0163398D02*
X0196703Y0163398D01*
X0197303Y0163998D01*
X0197303Y0165199D01*
X0196703Y0165800D01*
X0194301Y0165800D01*
X0193700Y0165199D01*
X0193700Y0163998D01*
X0194301Y0163398D01*
X0236200Y0186967D02*
X0236967Y0186200D01*
X0238502Y0186200D01*
X0239269Y0186967D01*
X0240804Y0186967D02*
X0241571Y0187735D01*
X0243873Y0187735D01*
X0243873Y0188502D02*
X0243873Y0186200D01*
X0241571Y0186200D01*
X0240804Y0186967D01*
X0243106Y0189269D02*
X0243873Y0188502D01*
X0243106Y0189269D02*
X0241571Y0189269D01*
X0239269Y0190037D02*
X0238502Y0190804D01*
X0236967Y0190804D01*
X0236200Y0190037D01*
X0236200Y0186967D01*
X0245408Y0186200D02*
X0245408Y0189269D01*
X0245408Y0187735D02*
X0246942Y0189269D01*
X0247710Y0189269D01*
X0249244Y0189269D02*
X0250779Y0189269D01*
X0250012Y0190037D02*
X0250012Y0186967D01*
X0250779Y0186200D01*
X0252314Y0186967D02*
X0252314Y0188502D01*
X0253081Y0189269D01*
X0254616Y0189269D01*
X0255383Y0188502D01*
X0255383Y0187735D01*
X0252314Y0187735D01*
X0252314Y0186967D02*
X0253081Y0186200D01*
X0254616Y0186200D01*
X0261522Y0186200D02*
X0261522Y0190804D01*
X0263824Y0190804D01*
X0264591Y0190037D01*
X0264591Y0188502D01*
X0263824Y0187735D01*
X0261522Y0187735D01*
X0266126Y0189269D02*
X0266893Y0189269D01*
X0266893Y0186200D01*
X0266126Y0186200D02*
X0267660Y0186200D01*
X0269195Y0186200D02*
X0270729Y0186200D01*
X0269962Y0186200D02*
X0269962Y0190804D01*
X0269195Y0190804D01*
X0266893Y0190804D02*
X0266893Y0191571D01*
X0272264Y0188502D02*
X0273031Y0189269D01*
X0274566Y0189269D01*
X0275333Y0188502D01*
X0275333Y0186967D01*
X0274566Y0186200D01*
X0273031Y0186200D01*
X0272264Y0186967D01*
X0272264Y0188502D01*
X0276868Y0189269D02*
X0278403Y0189269D01*
X0277635Y0190037D02*
X0277635Y0186967D01*
X0278403Y0186200D01*
X0279937Y0186967D02*
X0279937Y0188502D01*
X0280705Y0189269D01*
X0282239Y0189269D01*
X0283007Y0188502D01*
X0283007Y0187735D01*
X0279937Y0187735D01*
X0279937Y0186967D02*
X0280705Y0186200D01*
X0282239Y0186200D01*
X0296200Y0185998D02*
X0296200Y0187533D01*
X0296967Y0188300D01*
X0298502Y0187533D02*
X0298502Y0185998D01*
X0297735Y0185231D01*
X0296967Y0185231D01*
X0296200Y0185998D01*
X0296200Y0183696D02*
X0296200Y0181394D01*
X0296967Y0180627D01*
X0300037Y0180627D01*
X0300804Y0181394D01*
X0300804Y0183696D01*
X0296200Y0183696D01*
X0300037Y0185231D02*
X0300804Y0185998D01*
X0300804Y0187533D01*
X0300037Y0188300D01*
X0299269Y0188300D01*
X0298502Y0187533D01*
X0298502Y0179092D02*
X0298502Y0176023D01*
X0299269Y0176023D02*
X0296200Y0176023D01*
X0296200Y0179092D02*
X0299269Y0179092D01*
X0300804Y0177558D01*
X0299269Y0176023D01*
X0299269Y0168300D02*
X0298502Y0167533D01*
X0298502Y0165998D01*
X0297735Y0165231D01*
X0296967Y0165231D01*
X0296200Y0165998D01*
X0296200Y0167533D01*
X0296967Y0168300D01*
X0299269Y0168300D02*
X0300037Y0168300D01*
X0300804Y0167533D01*
X0300804Y0165998D01*
X0300037Y0165231D01*
X0300037Y0163696D02*
X0296967Y0163696D01*
X0296200Y0162929D01*
X0296200Y0161394D01*
X0296967Y0160627D01*
X0296200Y0159092D02*
X0296200Y0156023D01*
X0296200Y0159092D02*
X0300804Y0159092D01*
X0300037Y0160627D02*
X0300804Y0161394D01*
X0300804Y0162929D01*
X0300037Y0163696D01*
X0300037Y0148300D02*
X0296967Y0148300D01*
X0296200Y0147533D01*
X0296200Y0145998D01*
X0296967Y0145231D01*
X0298502Y0145231D01*
X0298502Y0146765D01*
X0300037Y0145231D02*
X0300804Y0145998D01*
X0300804Y0147533D01*
X0300037Y0148300D01*
X0300804Y0143696D02*
X0296200Y0143696D01*
X0296200Y0140627D02*
X0300804Y0140627D01*
X0300804Y0139092D02*
X0300804Y0136790D01*
X0300037Y0136023D01*
X0296967Y0136023D01*
X0296200Y0136790D01*
X0296200Y0139092D01*
X0300804Y0139092D01*
X0300804Y0143696D02*
X0296200Y0140627D01*
X0298502Y0128300D02*
X0298502Y0125231D01*
X0298502Y0123696D02*
X0299269Y0122161D01*
X0299269Y0121394D01*
X0298502Y0120627D01*
X0296967Y0120627D01*
X0296200Y0121394D01*
X0296200Y0122929D01*
X0296967Y0123696D01*
X0298502Y0123696D02*
X0300804Y0123696D01*
X0300804Y0120627D01*
X0300804Y0119092D02*
X0297735Y0119092D01*
X0296200Y0117558D01*
X0297735Y0116023D01*
X0300804Y0116023D01*
X0300037Y0126765D02*
X0296967Y0126765D01*
X0333200Y0129715D02*
X0333200Y0132117D01*
X0335602Y0129715D01*
X0336203Y0129715D01*
X0336803Y0130315D01*
X0336803Y0131516D01*
X0336203Y0132117D01*
X0336203Y0133398D02*
X0335602Y0133398D01*
X0335002Y0133998D01*
X0335002Y0135800D01*
X0336803Y0135800D02*
X0336803Y0133998D01*
X0336203Y0133398D01*
X0335002Y0133998D02*
X0334401Y0133398D01*
X0333801Y0133398D01*
X0333200Y0133998D01*
X0333200Y0135800D01*
X0336803Y0135800D01*
X0300804Y0099265D02*
X0299269Y0100800D01*
X0296200Y0100800D01*
X0298502Y0100800D02*
X0298502Y0097731D01*
X0299269Y0097731D02*
X0296200Y0097731D01*
X0296967Y0096196D02*
X0296200Y0095429D01*
X0296200Y0093127D01*
X0300804Y0093127D01*
X0299269Y0093127D02*
X0299269Y0095429D01*
X0298502Y0096196D01*
X0296967Y0096196D01*
X0299269Y0097731D02*
X0300804Y0099265D01*
X0298502Y0091592D02*
X0299269Y0090825D01*
X0299269Y0088523D01*
X0299269Y0086988D02*
X0296200Y0086988D01*
X0297735Y0086988D02*
X0299269Y0085454D01*
X0299269Y0084686D01*
X0298502Y0083152D02*
X0299269Y0082384D01*
X0299269Y0080850D01*
X0298502Y0080082D01*
X0297735Y0080082D01*
X0297735Y0083152D01*
X0298502Y0083152D02*
X0296967Y0083152D01*
X0296200Y0082384D01*
X0296200Y0080850D01*
X0296200Y0078548D02*
X0296200Y0076246D01*
X0296967Y0075478D01*
X0297735Y0076246D01*
X0297735Y0077780D01*
X0298502Y0078548D01*
X0299269Y0077780D01*
X0299269Y0075478D01*
X0298502Y0073944D02*
X0299269Y0073176D01*
X0299269Y0070874D01*
X0298502Y0069340D02*
X0299269Y0068573D01*
X0299269Y0067038D01*
X0298502Y0066271D01*
X0297735Y0066271D01*
X0297735Y0069340D01*
X0298502Y0069340D02*
X0296967Y0069340D01*
X0296200Y0068573D01*
X0296200Y0067038D01*
X0296967Y0070874D02*
X0297735Y0071642D01*
X0297735Y0073176D01*
X0298502Y0073944D01*
X0296200Y0073944D02*
X0296200Y0071642D01*
X0296967Y0070874D01*
X0296200Y0064736D02*
X0296200Y0062434D01*
X0296967Y0061667D01*
X0297735Y0062434D01*
X0297735Y0063969D01*
X0298502Y0064736D01*
X0299269Y0063969D01*
X0299269Y0061667D01*
X0300804Y0040800D02*
X0296200Y0040800D01*
X0296200Y0037731D02*
X0300804Y0037731D01*
X0300037Y0036196D02*
X0296967Y0036196D01*
X0296200Y0035429D01*
X0296200Y0033894D01*
X0296967Y0033127D01*
X0300037Y0033127D02*
X0300804Y0033894D01*
X0300804Y0035429D01*
X0300037Y0036196D01*
X0296200Y0037731D02*
X0300804Y0040800D01*
X0278190Y0027366D02*
X0278190Y0023763D01*
X0276989Y0023763D02*
X0279391Y0023763D01*
X0276989Y0026165D02*
X0278190Y0027366D01*
X0275708Y0026766D02*
X0275708Y0024363D01*
X0275108Y0023763D01*
X0273306Y0023763D01*
X0273306Y0027366D01*
X0275108Y0027366D01*
X0275708Y0026766D01*
X0296200Y0020800D02*
X0296200Y0017731D01*
X0296200Y0016196D02*
X0296200Y0014661D01*
X0296200Y0015429D02*
X0300804Y0015429D01*
X0300804Y0016196D02*
X0300804Y0014661D01*
X0300804Y0013127D02*
X0296200Y0010058D01*
X0300804Y0010058D01*
X0300804Y0008523D02*
X0296200Y0008523D01*
X0296200Y0005454D01*
X0298502Y0006988D02*
X0298502Y0008523D01*
X0300804Y0008523D02*
X0300804Y0005454D01*
X0300804Y0013127D02*
X0296200Y0013127D01*
X0296200Y0020800D02*
X0300804Y0020800D01*
X0333200Y0025315D02*
X0333200Y0026516D01*
X0333801Y0027117D01*
X0333801Y0028398D02*
X0333200Y0028998D01*
X0333200Y0030800D01*
X0336803Y0030800D01*
X0336803Y0028998D01*
X0336203Y0028398D01*
X0335602Y0028398D01*
X0335002Y0028998D01*
X0335002Y0030800D01*
X0335002Y0028998D02*
X0334401Y0028398D01*
X0333801Y0028398D01*
X0336203Y0027117D02*
X0336803Y0026516D01*
X0336803Y0025315D01*
X0336203Y0024715D01*
X0335602Y0024715D01*
X0335002Y0025315D01*
X0334401Y0024715D01*
X0333801Y0024715D01*
X0333200Y0025315D01*
X0335002Y0025315D02*
X0335002Y0025916D01*
X0300804Y0088523D02*
X0296200Y0088523D01*
X0296200Y0090825D01*
X0296967Y0091592D01*
X0298502Y0091592D01*
X0197303Y0067699D02*
X0197303Y0066498D01*
X0196703Y0065898D01*
X0194301Y0065898D01*
X0193700Y0066498D01*
X0193700Y0067699D01*
X0194301Y0068300D01*
X0196703Y0068300D01*
X0197303Y0067699D01*
X0196703Y0064617D02*
X0194301Y0064617D01*
X0193700Y0064016D01*
X0193700Y0062815D01*
X0194301Y0062215D01*
X0194301Y0060934D02*
X0194901Y0060934D01*
X0195502Y0060333D01*
X0195502Y0059132D01*
X0194901Y0058532D01*
X0194301Y0058532D01*
X0193700Y0059132D01*
X0193700Y0060333D01*
X0194301Y0060934D01*
X0195502Y0060333D02*
X0196102Y0060934D01*
X0196703Y0060934D01*
X0197303Y0060333D01*
X0197303Y0059132D01*
X0196703Y0058532D01*
X0196102Y0058532D01*
X0195502Y0059132D01*
X0196703Y0062215D02*
X0197303Y0062815D01*
X0197303Y0064016D01*
X0196703Y0064617D01*
X0157303Y0064016D02*
X0157303Y0062815D01*
X0156703Y0062215D01*
X0157303Y0060934D02*
X0157303Y0058532D01*
X0156703Y0058532D01*
X0154301Y0060934D01*
X0153700Y0060934D01*
X0154301Y0062215D02*
X0153700Y0062815D01*
X0153700Y0064016D01*
X0154301Y0064617D01*
X0156703Y0064617D01*
X0157303Y0064016D01*
X0156703Y0065898D02*
X0157303Y0066498D01*
X0157303Y0067699D01*
X0156703Y0068300D01*
X0154301Y0068300D01*
X0153700Y0067699D01*
X0153700Y0066498D01*
X0154301Y0065898D01*
X0156703Y0065898D01*
X0117303Y0066498D02*
X0116703Y0065898D01*
X0114301Y0065898D01*
X0113700Y0066498D01*
X0113700Y0067699D01*
X0114301Y0068300D01*
X0116703Y0068300D01*
X0117303Y0067699D01*
X0117303Y0066498D01*
X0116703Y0064617D02*
X0114301Y0064617D01*
X0113700Y0064016D01*
X0113700Y0062815D01*
X0114301Y0062215D01*
X0114301Y0060934D02*
X0113700Y0060333D01*
X0113700Y0059132D01*
X0114301Y0058532D01*
X0114901Y0058532D01*
X0115502Y0059132D01*
X0115502Y0060934D01*
X0114301Y0060934D01*
X0115502Y0060934D02*
X0116703Y0059733D01*
X0117303Y0058532D01*
X0116703Y0062215D02*
X0117303Y0062815D01*
X0117303Y0064016D01*
X0116703Y0064617D01*
X0077303Y0064016D02*
X0077303Y0062815D01*
X0076703Y0062215D01*
X0077303Y0060934D02*
X0075502Y0060934D01*
X0076102Y0059733D01*
X0076102Y0059132D01*
X0075502Y0058532D01*
X0074301Y0058532D01*
X0073700Y0059132D01*
X0073700Y0060333D01*
X0074301Y0060934D01*
X0074301Y0062215D02*
X0073700Y0062815D01*
X0073700Y0064016D01*
X0074301Y0064617D01*
X0076703Y0064617D01*
X0077303Y0064016D01*
X0076703Y0065898D02*
X0074301Y0065898D01*
X0073700Y0066498D01*
X0073700Y0067699D01*
X0074301Y0068300D01*
X0076703Y0068300D01*
X0077303Y0067699D01*
X0077303Y0066498D01*
X0076703Y0065898D01*
X0077303Y0060934D02*
X0077303Y0058532D01*
X0333200Y0169715D02*
X0333200Y0172117D01*
X0333200Y0170916D02*
X0336803Y0170916D01*
X0335602Y0172117D01*
X0335602Y0173398D02*
X0335002Y0173998D01*
X0335002Y0175800D01*
X0336803Y0175800D02*
X0336803Y0173998D01*
X0336203Y0173398D01*
X0335602Y0173398D01*
X0335002Y0173998D02*
X0334401Y0173398D01*
X0333801Y0173398D01*
X0333200Y0173998D01*
X0333200Y0175800D01*
X0336803Y0175800D01*
D12*
X0277292Y0178650D02*
X0276057Y0179884D01*
X0276675Y0179884D02*
X0274823Y0179884D01*
X0274823Y0178650D02*
X0274823Y0182353D01*
X0276675Y0182353D01*
X0277292Y0181736D01*
X0277292Y0180502D01*
X0276675Y0179884D01*
X0273609Y0178650D02*
X0271140Y0178650D01*
X0269915Y0178650D02*
X0269298Y0178650D01*
X0269298Y0179267D01*
X0269915Y0179267D01*
X0269915Y0178650D01*
X0268084Y0178650D02*
X0265615Y0178650D01*
X0266850Y0178650D02*
X0266850Y0182353D01*
X0265615Y0181119D01*
X0260718Y0179884D02*
X0259483Y0178650D01*
X0258866Y0178650D01*
X0258249Y0179267D01*
X0258249Y0179884D01*
X0259483Y0181119D01*
X0259483Y0181736D01*
X0258866Y0182353D01*
X0258249Y0181736D01*
X0258249Y0181119D01*
X0260718Y0178650D01*
X0253351Y0178650D02*
X0252117Y0179884D01*
X0252734Y0179884D02*
X0250883Y0179884D01*
X0250883Y0178650D02*
X0250883Y0182353D01*
X0252734Y0182353D01*
X0253351Y0181736D01*
X0253351Y0180502D01*
X0252734Y0179884D01*
X0249668Y0178650D02*
X0247199Y0178650D01*
X0248434Y0178650D02*
X0248434Y0182353D01*
X0247199Y0181119D01*
X0242302Y0181119D02*
X0242302Y0178033D01*
X0241685Y0177416D01*
X0241068Y0177416D01*
X0240450Y0178650D02*
X0242302Y0178650D01*
X0240450Y0178650D02*
X0239833Y0179267D01*
X0239833Y0181119D01*
X0238619Y0180502D02*
X0238002Y0181119D01*
X0236150Y0181119D01*
X0236150Y0182353D02*
X0236150Y0178650D01*
X0238002Y0178650D01*
X0238619Y0179267D01*
X0238619Y0180502D01*
X0271140Y0181119D02*
X0272374Y0182353D01*
X0272374Y0178650D01*
X0192353Y0133350D02*
X0192353Y0131498D01*
X0191736Y0130881D01*
X0190502Y0130881D01*
X0189884Y0131498D01*
X0189884Y0133350D01*
X0188650Y0133350D02*
X0192353Y0133350D01*
X0189884Y0132116D02*
X0188650Y0130881D01*
X0188650Y0129667D02*
X0188650Y0127198D01*
X0188650Y0128432D02*
X0192353Y0128432D01*
X0191119Y0129667D01*
X0152353Y0129050D02*
X0152353Y0127815D01*
X0151736Y0127198D01*
X0151119Y0127198D01*
X0148650Y0129667D01*
X0148650Y0127198D01*
X0151736Y0129667D02*
X0152353Y0129050D01*
X0151736Y0130881D02*
X0150502Y0130881D01*
X0149884Y0131498D01*
X0149884Y0133350D01*
X0148650Y0133350D02*
X0152353Y0133350D01*
X0152353Y0131498D01*
X0151736Y0130881D01*
X0149884Y0132116D02*
X0148650Y0130881D01*
X0112353Y0131498D02*
X0111736Y0130881D01*
X0110502Y0130881D01*
X0109884Y0131498D01*
X0109884Y0133350D01*
X0108650Y0133350D02*
X0112353Y0133350D01*
X0112353Y0131498D01*
X0111736Y0129667D02*
X0112353Y0129050D01*
X0112353Y0127815D01*
X0111736Y0127198D01*
X0111119Y0127198D01*
X0110502Y0127815D01*
X0109884Y0127198D01*
X0109267Y0127198D01*
X0108650Y0127815D01*
X0108650Y0129050D01*
X0109267Y0129667D01*
X0108650Y0130881D02*
X0109884Y0132116D01*
X0110502Y0128432D02*
X0110502Y0127815D01*
X0072353Y0127815D02*
X0070502Y0129667D01*
X0070502Y0127198D01*
X0072353Y0127815D02*
X0068650Y0127815D01*
X0068650Y0130881D02*
X0069884Y0132116D01*
X0069884Y0131498D02*
X0069884Y0133350D01*
X0068650Y0133350D02*
X0072353Y0133350D01*
X0072353Y0131498D01*
X0071736Y0130881D01*
X0070502Y0130881D01*
X0069884Y0131498D01*
X0091150Y0095850D02*
X0094853Y0095850D01*
X0094853Y0093998D01*
X0094236Y0093381D01*
X0093002Y0093381D01*
X0092384Y0093998D01*
X0092384Y0095850D01*
X0092384Y0094616D02*
X0091150Y0093381D01*
X0091767Y0092167D02*
X0091150Y0091550D01*
X0091150Y0090315D01*
X0091767Y0089698D01*
X0093002Y0089698D01*
X0093619Y0090315D01*
X0093619Y0090932D01*
X0093002Y0092167D01*
X0094853Y0092167D01*
X0094853Y0089698D01*
X0131150Y0090315D02*
X0131767Y0089698D01*
X0132384Y0089698D01*
X0133002Y0090315D01*
X0133002Y0092167D01*
X0131767Y0092167D01*
X0131150Y0091550D01*
X0131150Y0090315D01*
X0133002Y0092167D02*
X0134236Y0090932D01*
X0134853Y0089698D01*
X0134236Y0093381D02*
X0133002Y0093381D01*
X0132384Y0093998D01*
X0132384Y0095850D01*
X0131150Y0095850D02*
X0134853Y0095850D01*
X0134853Y0093998D01*
X0134236Y0093381D01*
X0132384Y0094616D02*
X0131150Y0093381D01*
X0171150Y0093381D02*
X0172384Y0094616D01*
X0172384Y0093998D02*
X0172384Y0095850D01*
X0171150Y0095850D02*
X0174853Y0095850D01*
X0174853Y0093998D01*
X0174236Y0093381D01*
X0173002Y0093381D01*
X0172384Y0093998D01*
X0171767Y0092167D02*
X0171150Y0092167D01*
X0171767Y0092167D02*
X0174236Y0089698D01*
X0174853Y0089698D01*
X0174853Y0092167D01*
X0211150Y0091550D02*
X0211150Y0090315D01*
X0211767Y0089698D01*
X0212384Y0089698D01*
X0213002Y0090315D01*
X0213002Y0091550D01*
X0213619Y0092167D01*
X0214236Y0092167D01*
X0214853Y0091550D01*
X0214853Y0090315D01*
X0214236Y0089698D01*
X0213619Y0089698D01*
X0213002Y0090315D01*
X0213002Y0091550D02*
X0212384Y0092167D01*
X0211767Y0092167D01*
X0211150Y0091550D01*
X0211150Y0093381D02*
X0212384Y0094616D01*
X0212384Y0093998D02*
X0212384Y0095850D01*
X0211150Y0095850D02*
X0214853Y0095850D01*
X0214853Y0093998D01*
X0214236Y0093381D01*
X0213002Y0093381D01*
X0212384Y0093998D01*
X0242091Y0094357D02*
X0242091Y0091889D01*
X0242091Y0093123D02*
X0245794Y0093123D01*
X0244560Y0094357D01*
X0245177Y0095572D02*
X0245794Y0096189D01*
X0245794Y0097423D01*
X0245177Y0098041D01*
X0242708Y0098041D01*
X0242091Y0097423D01*
X0242091Y0096189D01*
X0242708Y0095572D01*
X0242091Y0099262D02*
X0242091Y0100496D01*
X0242091Y0099879D02*
X0245794Y0099879D01*
X0245794Y0100496D02*
X0245794Y0099262D01*
D13*
X0276984Y0018953D02*
X0276984Y0013244D01*
X0272850Y0016000D01*
X0276984Y0018953D01*
D14*
X0272654Y0016000D03*
D15*
X0303500Y0006000D02*
X0303500Y0046000D01*
X0304500Y0046000D01*
X0330500Y0046000D01*
X0330500Y0039500D01*
X0330500Y0046000D02*
X0340000Y0046000D01*
X0340000Y0006000D01*
X0330500Y0006000D01*
X0330500Y0012500D01*
X0330500Y0006000D02*
X0304500Y0006000D01*
X0303500Y0006000D01*
X0304500Y0006000D02*
X0304500Y0046000D01*
X0307800Y0036000D02*
X0307802Y0036089D01*
X0307808Y0036178D01*
X0307818Y0036267D01*
X0307832Y0036355D01*
X0307849Y0036442D01*
X0307871Y0036528D01*
X0307897Y0036614D01*
X0307926Y0036698D01*
X0307959Y0036781D01*
X0307995Y0036862D01*
X0308036Y0036942D01*
X0308079Y0037019D01*
X0308126Y0037095D01*
X0308177Y0037168D01*
X0308230Y0037239D01*
X0308287Y0037308D01*
X0308347Y0037374D01*
X0308410Y0037438D01*
X0308475Y0037498D01*
X0308543Y0037556D01*
X0308614Y0037610D01*
X0308687Y0037661D01*
X0308762Y0037709D01*
X0308839Y0037754D01*
X0308918Y0037795D01*
X0308999Y0037832D01*
X0309081Y0037866D01*
X0309165Y0037897D01*
X0309250Y0037923D01*
X0309336Y0037946D01*
X0309423Y0037964D01*
X0309511Y0037979D01*
X0309600Y0037990D01*
X0309689Y0037997D01*
X0309778Y0038000D01*
X0309867Y0037999D01*
X0309956Y0037994D01*
X0310044Y0037985D01*
X0310133Y0037972D01*
X0310220Y0037955D01*
X0310307Y0037935D01*
X0310393Y0037910D01*
X0310477Y0037882D01*
X0310560Y0037850D01*
X0310642Y0037814D01*
X0310722Y0037775D01*
X0310800Y0037732D01*
X0310876Y0037686D01*
X0310950Y0037636D01*
X0311022Y0037583D01*
X0311091Y0037527D01*
X0311158Y0037468D01*
X0311222Y0037406D01*
X0311283Y0037342D01*
X0311342Y0037274D01*
X0311397Y0037204D01*
X0311449Y0037132D01*
X0311498Y0037057D01*
X0311543Y0036981D01*
X0311585Y0036902D01*
X0311623Y0036822D01*
X0311658Y0036740D01*
X0311689Y0036656D01*
X0311717Y0036571D01*
X0311740Y0036485D01*
X0311760Y0036398D01*
X0311776Y0036311D01*
X0311788Y0036222D01*
X0311796Y0036134D01*
X0311800Y0036045D01*
X0311800Y0035955D01*
X0311796Y0035866D01*
X0311788Y0035778D01*
X0311776Y0035689D01*
X0311760Y0035602D01*
X0311740Y0035515D01*
X0311717Y0035429D01*
X0311689Y0035344D01*
X0311658Y0035260D01*
X0311623Y0035178D01*
X0311585Y0035098D01*
X0311543Y0035019D01*
X0311498Y0034943D01*
X0311449Y0034868D01*
X0311397Y0034796D01*
X0311342Y0034726D01*
X0311283Y0034658D01*
X0311222Y0034594D01*
X0311158Y0034532D01*
X0311091Y0034473D01*
X0311022Y0034417D01*
X0310950Y0034364D01*
X0310876Y0034314D01*
X0310800Y0034268D01*
X0310722Y0034225D01*
X0310642Y0034186D01*
X0310560Y0034150D01*
X0310477Y0034118D01*
X0310393Y0034090D01*
X0310307Y0034065D01*
X0310220Y0034045D01*
X0310133Y0034028D01*
X0310044Y0034015D01*
X0309956Y0034006D01*
X0309867Y0034001D01*
X0309778Y0034000D01*
X0309689Y0034003D01*
X0309600Y0034010D01*
X0309511Y0034021D01*
X0309423Y0034036D01*
X0309336Y0034054D01*
X0309250Y0034077D01*
X0309165Y0034103D01*
X0309081Y0034134D01*
X0308999Y0034168D01*
X0308918Y0034205D01*
X0308839Y0034246D01*
X0308762Y0034291D01*
X0308687Y0034339D01*
X0308614Y0034390D01*
X0308543Y0034444D01*
X0308475Y0034502D01*
X0308410Y0034562D01*
X0308347Y0034626D01*
X0308287Y0034692D01*
X0308230Y0034761D01*
X0308177Y0034832D01*
X0308126Y0034905D01*
X0308079Y0034981D01*
X0308036Y0035058D01*
X0307995Y0035138D01*
X0307959Y0035219D01*
X0307926Y0035302D01*
X0307897Y0035386D01*
X0307871Y0035472D01*
X0307849Y0035558D01*
X0307832Y0035645D01*
X0307818Y0035733D01*
X0307808Y0035822D01*
X0307802Y0035911D01*
X0307800Y0036000D01*
X0330500Y0032500D02*
X0330500Y0019500D01*
X0307800Y0016000D02*
X0307802Y0016089D01*
X0307808Y0016178D01*
X0307818Y0016267D01*
X0307832Y0016355D01*
X0307849Y0016442D01*
X0307871Y0016528D01*
X0307897Y0016614D01*
X0307926Y0016698D01*
X0307959Y0016781D01*
X0307995Y0016862D01*
X0308036Y0016942D01*
X0308079Y0017019D01*
X0308126Y0017095D01*
X0308177Y0017168D01*
X0308230Y0017239D01*
X0308287Y0017308D01*
X0308347Y0017374D01*
X0308410Y0017438D01*
X0308475Y0017498D01*
X0308543Y0017556D01*
X0308614Y0017610D01*
X0308687Y0017661D01*
X0308762Y0017709D01*
X0308839Y0017754D01*
X0308918Y0017795D01*
X0308999Y0017832D01*
X0309081Y0017866D01*
X0309165Y0017897D01*
X0309250Y0017923D01*
X0309336Y0017946D01*
X0309423Y0017964D01*
X0309511Y0017979D01*
X0309600Y0017990D01*
X0309689Y0017997D01*
X0309778Y0018000D01*
X0309867Y0017999D01*
X0309956Y0017994D01*
X0310044Y0017985D01*
X0310133Y0017972D01*
X0310220Y0017955D01*
X0310307Y0017935D01*
X0310393Y0017910D01*
X0310477Y0017882D01*
X0310560Y0017850D01*
X0310642Y0017814D01*
X0310722Y0017775D01*
X0310800Y0017732D01*
X0310876Y0017686D01*
X0310950Y0017636D01*
X0311022Y0017583D01*
X0311091Y0017527D01*
X0311158Y0017468D01*
X0311222Y0017406D01*
X0311283Y0017342D01*
X0311342Y0017274D01*
X0311397Y0017204D01*
X0311449Y0017132D01*
X0311498Y0017057D01*
X0311543Y0016981D01*
X0311585Y0016902D01*
X0311623Y0016822D01*
X0311658Y0016740D01*
X0311689Y0016656D01*
X0311717Y0016571D01*
X0311740Y0016485D01*
X0311760Y0016398D01*
X0311776Y0016311D01*
X0311788Y0016222D01*
X0311796Y0016134D01*
X0311800Y0016045D01*
X0311800Y0015955D01*
X0311796Y0015866D01*
X0311788Y0015778D01*
X0311776Y0015689D01*
X0311760Y0015602D01*
X0311740Y0015515D01*
X0311717Y0015429D01*
X0311689Y0015344D01*
X0311658Y0015260D01*
X0311623Y0015178D01*
X0311585Y0015098D01*
X0311543Y0015019D01*
X0311498Y0014943D01*
X0311449Y0014868D01*
X0311397Y0014796D01*
X0311342Y0014726D01*
X0311283Y0014658D01*
X0311222Y0014594D01*
X0311158Y0014532D01*
X0311091Y0014473D01*
X0311022Y0014417D01*
X0310950Y0014364D01*
X0310876Y0014314D01*
X0310800Y0014268D01*
X0310722Y0014225D01*
X0310642Y0014186D01*
X0310560Y0014150D01*
X0310477Y0014118D01*
X0310393Y0014090D01*
X0310307Y0014065D01*
X0310220Y0014045D01*
X0310133Y0014028D01*
X0310044Y0014015D01*
X0309956Y0014006D01*
X0309867Y0014001D01*
X0309778Y0014000D01*
X0309689Y0014003D01*
X0309600Y0014010D01*
X0309511Y0014021D01*
X0309423Y0014036D01*
X0309336Y0014054D01*
X0309250Y0014077D01*
X0309165Y0014103D01*
X0309081Y0014134D01*
X0308999Y0014168D01*
X0308918Y0014205D01*
X0308839Y0014246D01*
X0308762Y0014291D01*
X0308687Y0014339D01*
X0308614Y0014390D01*
X0308543Y0014444D01*
X0308475Y0014502D01*
X0308410Y0014562D01*
X0308347Y0014626D01*
X0308287Y0014692D01*
X0308230Y0014761D01*
X0308177Y0014832D01*
X0308126Y0014905D01*
X0308079Y0014981D01*
X0308036Y0015058D01*
X0307995Y0015138D01*
X0307959Y0015219D01*
X0307926Y0015302D01*
X0307897Y0015386D01*
X0307871Y0015472D01*
X0307849Y0015558D01*
X0307832Y0015645D01*
X0307818Y0015733D01*
X0307808Y0015822D01*
X0307802Y0015911D01*
X0307800Y0016000D01*
X0225764Y0050980D02*
X0225764Y0076020D01*
X0191335Y0076020D01*
X0191335Y0073988D01*
X0225370Y0073988D01*
X0191335Y0073988D02*
X0191335Y0050980D01*
X0225764Y0050980D01*
X0185764Y0050980D02*
X0185764Y0076020D01*
X0151335Y0076020D01*
X0151335Y0073988D01*
X0185370Y0073988D01*
X0151335Y0073988D02*
X0151335Y0050980D01*
X0185764Y0050980D01*
X0145764Y0050980D02*
X0145764Y0076020D01*
X0111335Y0076020D01*
X0111335Y0073988D01*
X0145370Y0073988D01*
X0111335Y0073988D02*
X0111335Y0050980D01*
X0145764Y0050980D01*
X0105764Y0050980D02*
X0105764Y0076020D01*
X0071335Y0076020D01*
X0071335Y0073988D01*
X0105370Y0073988D01*
X0071335Y0073988D02*
X0071335Y0050980D01*
X0105764Y0050980D01*
X0038500Y0058500D02*
X0038500Y0018500D01*
X0037500Y0018500D01*
X0011500Y0018500D01*
X0011500Y0025000D01*
X0011500Y0018500D02*
X0002000Y0018500D01*
X0002000Y0178500D01*
X0011500Y0178500D01*
X0037500Y0178500D01*
X0038500Y0178500D01*
X0038500Y0118500D01*
X0038500Y0058500D01*
X0011500Y0058500D01*
X0011500Y0052000D01*
X0011500Y0058500D02*
X0011500Y0065000D01*
X0011500Y0072000D02*
X0011500Y0085000D01*
X0011500Y0092000D02*
X0011500Y0105000D01*
X0011500Y0112000D02*
X0011500Y0118500D01*
X0011500Y0125000D01*
X0011500Y0118500D02*
X0038500Y0118500D01*
X0030200Y0108500D02*
X0030202Y0108589D01*
X0030208Y0108678D01*
X0030218Y0108767D01*
X0030232Y0108855D01*
X0030249Y0108942D01*
X0030271Y0109028D01*
X0030297Y0109114D01*
X0030326Y0109198D01*
X0030359Y0109281D01*
X0030395Y0109362D01*
X0030436Y0109442D01*
X0030479Y0109519D01*
X0030526Y0109595D01*
X0030577Y0109668D01*
X0030630Y0109739D01*
X0030687Y0109808D01*
X0030747Y0109874D01*
X0030810Y0109938D01*
X0030875Y0109998D01*
X0030943Y0110056D01*
X0031014Y0110110D01*
X0031087Y0110161D01*
X0031162Y0110209D01*
X0031239Y0110254D01*
X0031318Y0110295D01*
X0031399Y0110332D01*
X0031481Y0110366D01*
X0031565Y0110397D01*
X0031650Y0110423D01*
X0031736Y0110446D01*
X0031823Y0110464D01*
X0031911Y0110479D01*
X0032000Y0110490D01*
X0032089Y0110497D01*
X0032178Y0110500D01*
X0032267Y0110499D01*
X0032356Y0110494D01*
X0032444Y0110485D01*
X0032533Y0110472D01*
X0032620Y0110455D01*
X0032707Y0110435D01*
X0032793Y0110410D01*
X0032877Y0110382D01*
X0032960Y0110350D01*
X0033042Y0110314D01*
X0033122Y0110275D01*
X0033200Y0110232D01*
X0033276Y0110186D01*
X0033350Y0110136D01*
X0033422Y0110083D01*
X0033491Y0110027D01*
X0033558Y0109968D01*
X0033622Y0109906D01*
X0033683Y0109842D01*
X0033742Y0109774D01*
X0033797Y0109704D01*
X0033849Y0109632D01*
X0033898Y0109557D01*
X0033943Y0109481D01*
X0033985Y0109402D01*
X0034023Y0109322D01*
X0034058Y0109240D01*
X0034089Y0109156D01*
X0034117Y0109071D01*
X0034140Y0108985D01*
X0034160Y0108898D01*
X0034176Y0108811D01*
X0034188Y0108722D01*
X0034196Y0108634D01*
X0034200Y0108545D01*
X0034200Y0108455D01*
X0034196Y0108366D01*
X0034188Y0108278D01*
X0034176Y0108189D01*
X0034160Y0108102D01*
X0034140Y0108015D01*
X0034117Y0107929D01*
X0034089Y0107844D01*
X0034058Y0107760D01*
X0034023Y0107678D01*
X0033985Y0107598D01*
X0033943Y0107519D01*
X0033898Y0107443D01*
X0033849Y0107368D01*
X0033797Y0107296D01*
X0033742Y0107226D01*
X0033683Y0107158D01*
X0033622Y0107094D01*
X0033558Y0107032D01*
X0033491Y0106973D01*
X0033422Y0106917D01*
X0033350Y0106864D01*
X0033276Y0106814D01*
X0033200Y0106768D01*
X0033122Y0106725D01*
X0033042Y0106686D01*
X0032960Y0106650D01*
X0032877Y0106618D01*
X0032793Y0106590D01*
X0032707Y0106565D01*
X0032620Y0106545D01*
X0032533Y0106528D01*
X0032444Y0106515D01*
X0032356Y0106506D01*
X0032267Y0106501D01*
X0032178Y0106500D01*
X0032089Y0106503D01*
X0032000Y0106510D01*
X0031911Y0106521D01*
X0031823Y0106536D01*
X0031736Y0106554D01*
X0031650Y0106577D01*
X0031565Y0106603D01*
X0031481Y0106634D01*
X0031399Y0106668D01*
X0031318Y0106705D01*
X0031239Y0106746D01*
X0031162Y0106791D01*
X0031087Y0106839D01*
X0031014Y0106890D01*
X0030943Y0106944D01*
X0030875Y0107002D01*
X0030810Y0107062D01*
X0030747Y0107126D01*
X0030687Y0107192D01*
X0030630Y0107261D01*
X0030577Y0107332D01*
X0030526Y0107405D01*
X0030479Y0107481D01*
X0030436Y0107558D01*
X0030395Y0107638D01*
X0030359Y0107719D01*
X0030326Y0107802D01*
X0030297Y0107886D01*
X0030271Y0107972D01*
X0030249Y0108058D01*
X0030232Y0108145D01*
X0030218Y0108233D01*
X0030208Y0108322D01*
X0030202Y0108411D01*
X0030200Y0108500D01*
X0030200Y0128500D02*
X0030202Y0128589D01*
X0030208Y0128678D01*
X0030218Y0128767D01*
X0030232Y0128855D01*
X0030249Y0128942D01*
X0030271Y0129028D01*
X0030297Y0129114D01*
X0030326Y0129198D01*
X0030359Y0129281D01*
X0030395Y0129362D01*
X0030436Y0129442D01*
X0030479Y0129519D01*
X0030526Y0129595D01*
X0030577Y0129668D01*
X0030630Y0129739D01*
X0030687Y0129808D01*
X0030747Y0129874D01*
X0030810Y0129938D01*
X0030875Y0129998D01*
X0030943Y0130056D01*
X0031014Y0130110D01*
X0031087Y0130161D01*
X0031162Y0130209D01*
X0031239Y0130254D01*
X0031318Y0130295D01*
X0031399Y0130332D01*
X0031481Y0130366D01*
X0031565Y0130397D01*
X0031650Y0130423D01*
X0031736Y0130446D01*
X0031823Y0130464D01*
X0031911Y0130479D01*
X0032000Y0130490D01*
X0032089Y0130497D01*
X0032178Y0130500D01*
X0032267Y0130499D01*
X0032356Y0130494D01*
X0032444Y0130485D01*
X0032533Y0130472D01*
X0032620Y0130455D01*
X0032707Y0130435D01*
X0032793Y0130410D01*
X0032877Y0130382D01*
X0032960Y0130350D01*
X0033042Y0130314D01*
X0033122Y0130275D01*
X0033200Y0130232D01*
X0033276Y0130186D01*
X0033350Y0130136D01*
X0033422Y0130083D01*
X0033491Y0130027D01*
X0033558Y0129968D01*
X0033622Y0129906D01*
X0033683Y0129842D01*
X0033742Y0129774D01*
X0033797Y0129704D01*
X0033849Y0129632D01*
X0033898Y0129557D01*
X0033943Y0129481D01*
X0033985Y0129402D01*
X0034023Y0129322D01*
X0034058Y0129240D01*
X0034089Y0129156D01*
X0034117Y0129071D01*
X0034140Y0128985D01*
X0034160Y0128898D01*
X0034176Y0128811D01*
X0034188Y0128722D01*
X0034196Y0128634D01*
X0034200Y0128545D01*
X0034200Y0128455D01*
X0034196Y0128366D01*
X0034188Y0128278D01*
X0034176Y0128189D01*
X0034160Y0128102D01*
X0034140Y0128015D01*
X0034117Y0127929D01*
X0034089Y0127844D01*
X0034058Y0127760D01*
X0034023Y0127678D01*
X0033985Y0127598D01*
X0033943Y0127519D01*
X0033898Y0127443D01*
X0033849Y0127368D01*
X0033797Y0127296D01*
X0033742Y0127226D01*
X0033683Y0127158D01*
X0033622Y0127094D01*
X0033558Y0127032D01*
X0033491Y0126973D01*
X0033422Y0126917D01*
X0033350Y0126864D01*
X0033276Y0126814D01*
X0033200Y0126768D01*
X0033122Y0126725D01*
X0033042Y0126686D01*
X0032960Y0126650D01*
X0032877Y0126618D01*
X0032793Y0126590D01*
X0032707Y0126565D01*
X0032620Y0126545D01*
X0032533Y0126528D01*
X0032444Y0126515D01*
X0032356Y0126506D01*
X0032267Y0126501D01*
X0032178Y0126500D01*
X0032089Y0126503D01*
X0032000Y0126510D01*
X0031911Y0126521D01*
X0031823Y0126536D01*
X0031736Y0126554D01*
X0031650Y0126577D01*
X0031565Y0126603D01*
X0031481Y0126634D01*
X0031399Y0126668D01*
X0031318Y0126705D01*
X0031239Y0126746D01*
X0031162Y0126791D01*
X0031087Y0126839D01*
X0031014Y0126890D01*
X0030943Y0126944D01*
X0030875Y0127002D01*
X0030810Y0127062D01*
X0030747Y0127126D01*
X0030687Y0127192D01*
X0030630Y0127261D01*
X0030577Y0127332D01*
X0030526Y0127405D01*
X0030479Y0127481D01*
X0030436Y0127558D01*
X0030395Y0127638D01*
X0030359Y0127719D01*
X0030326Y0127802D01*
X0030297Y0127886D01*
X0030271Y0127972D01*
X0030249Y0128058D01*
X0030232Y0128145D01*
X0030218Y0128233D01*
X0030208Y0128322D01*
X0030202Y0128411D01*
X0030200Y0128500D01*
X0011500Y0132000D02*
X0011500Y0145000D01*
X0011500Y0152000D02*
X0011500Y0165000D01*
X0011500Y0172000D02*
X0011500Y0178500D01*
X0030200Y0168500D02*
X0030202Y0168589D01*
X0030208Y0168678D01*
X0030218Y0168767D01*
X0030232Y0168855D01*
X0030249Y0168942D01*
X0030271Y0169028D01*
X0030297Y0169114D01*
X0030326Y0169198D01*
X0030359Y0169281D01*
X0030395Y0169362D01*
X0030436Y0169442D01*
X0030479Y0169519D01*
X0030526Y0169595D01*
X0030577Y0169668D01*
X0030630Y0169739D01*
X0030687Y0169808D01*
X0030747Y0169874D01*
X0030810Y0169938D01*
X0030875Y0169998D01*
X0030943Y0170056D01*
X0031014Y0170110D01*
X0031087Y0170161D01*
X0031162Y0170209D01*
X0031239Y0170254D01*
X0031318Y0170295D01*
X0031399Y0170332D01*
X0031481Y0170366D01*
X0031565Y0170397D01*
X0031650Y0170423D01*
X0031736Y0170446D01*
X0031823Y0170464D01*
X0031911Y0170479D01*
X0032000Y0170490D01*
X0032089Y0170497D01*
X0032178Y0170500D01*
X0032267Y0170499D01*
X0032356Y0170494D01*
X0032444Y0170485D01*
X0032533Y0170472D01*
X0032620Y0170455D01*
X0032707Y0170435D01*
X0032793Y0170410D01*
X0032877Y0170382D01*
X0032960Y0170350D01*
X0033042Y0170314D01*
X0033122Y0170275D01*
X0033200Y0170232D01*
X0033276Y0170186D01*
X0033350Y0170136D01*
X0033422Y0170083D01*
X0033491Y0170027D01*
X0033558Y0169968D01*
X0033622Y0169906D01*
X0033683Y0169842D01*
X0033742Y0169774D01*
X0033797Y0169704D01*
X0033849Y0169632D01*
X0033898Y0169557D01*
X0033943Y0169481D01*
X0033985Y0169402D01*
X0034023Y0169322D01*
X0034058Y0169240D01*
X0034089Y0169156D01*
X0034117Y0169071D01*
X0034140Y0168985D01*
X0034160Y0168898D01*
X0034176Y0168811D01*
X0034188Y0168722D01*
X0034196Y0168634D01*
X0034200Y0168545D01*
X0034200Y0168455D01*
X0034196Y0168366D01*
X0034188Y0168278D01*
X0034176Y0168189D01*
X0034160Y0168102D01*
X0034140Y0168015D01*
X0034117Y0167929D01*
X0034089Y0167844D01*
X0034058Y0167760D01*
X0034023Y0167678D01*
X0033985Y0167598D01*
X0033943Y0167519D01*
X0033898Y0167443D01*
X0033849Y0167368D01*
X0033797Y0167296D01*
X0033742Y0167226D01*
X0033683Y0167158D01*
X0033622Y0167094D01*
X0033558Y0167032D01*
X0033491Y0166973D01*
X0033422Y0166917D01*
X0033350Y0166864D01*
X0033276Y0166814D01*
X0033200Y0166768D01*
X0033122Y0166725D01*
X0033042Y0166686D01*
X0032960Y0166650D01*
X0032877Y0166618D01*
X0032793Y0166590D01*
X0032707Y0166565D01*
X0032620Y0166545D01*
X0032533Y0166528D01*
X0032444Y0166515D01*
X0032356Y0166506D01*
X0032267Y0166501D01*
X0032178Y0166500D01*
X0032089Y0166503D01*
X0032000Y0166510D01*
X0031911Y0166521D01*
X0031823Y0166536D01*
X0031736Y0166554D01*
X0031650Y0166577D01*
X0031565Y0166603D01*
X0031481Y0166634D01*
X0031399Y0166668D01*
X0031318Y0166705D01*
X0031239Y0166746D01*
X0031162Y0166791D01*
X0031087Y0166839D01*
X0031014Y0166890D01*
X0030943Y0166944D01*
X0030875Y0167002D01*
X0030810Y0167062D01*
X0030747Y0167126D01*
X0030687Y0167192D01*
X0030630Y0167261D01*
X0030577Y0167332D01*
X0030526Y0167405D01*
X0030479Y0167481D01*
X0030436Y0167558D01*
X0030395Y0167638D01*
X0030359Y0167719D01*
X0030326Y0167802D01*
X0030297Y0167886D01*
X0030271Y0167972D01*
X0030249Y0168058D01*
X0030232Y0168145D01*
X0030218Y0168233D01*
X0030208Y0168322D01*
X0030202Y0168411D01*
X0030200Y0168500D01*
X0037500Y0178500D02*
X0037500Y0018500D01*
X0030200Y0028500D02*
X0030202Y0028589D01*
X0030208Y0028678D01*
X0030218Y0028767D01*
X0030232Y0028855D01*
X0030249Y0028942D01*
X0030271Y0029028D01*
X0030297Y0029114D01*
X0030326Y0029198D01*
X0030359Y0029281D01*
X0030395Y0029362D01*
X0030436Y0029442D01*
X0030479Y0029519D01*
X0030526Y0029595D01*
X0030577Y0029668D01*
X0030630Y0029739D01*
X0030687Y0029808D01*
X0030747Y0029874D01*
X0030810Y0029938D01*
X0030875Y0029998D01*
X0030943Y0030056D01*
X0031014Y0030110D01*
X0031087Y0030161D01*
X0031162Y0030209D01*
X0031239Y0030254D01*
X0031318Y0030295D01*
X0031399Y0030332D01*
X0031481Y0030366D01*
X0031565Y0030397D01*
X0031650Y0030423D01*
X0031736Y0030446D01*
X0031823Y0030464D01*
X0031911Y0030479D01*
X0032000Y0030490D01*
X0032089Y0030497D01*
X0032178Y0030500D01*
X0032267Y0030499D01*
X0032356Y0030494D01*
X0032444Y0030485D01*
X0032533Y0030472D01*
X0032620Y0030455D01*
X0032707Y0030435D01*
X0032793Y0030410D01*
X0032877Y0030382D01*
X0032960Y0030350D01*
X0033042Y0030314D01*
X0033122Y0030275D01*
X0033200Y0030232D01*
X0033276Y0030186D01*
X0033350Y0030136D01*
X0033422Y0030083D01*
X0033491Y0030027D01*
X0033558Y0029968D01*
X0033622Y0029906D01*
X0033683Y0029842D01*
X0033742Y0029774D01*
X0033797Y0029704D01*
X0033849Y0029632D01*
X0033898Y0029557D01*
X0033943Y0029481D01*
X0033985Y0029402D01*
X0034023Y0029322D01*
X0034058Y0029240D01*
X0034089Y0029156D01*
X0034117Y0029071D01*
X0034140Y0028985D01*
X0034160Y0028898D01*
X0034176Y0028811D01*
X0034188Y0028722D01*
X0034196Y0028634D01*
X0034200Y0028545D01*
X0034200Y0028455D01*
X0034196Y0028366D01*
X0034188Y0028278D01*
X0034176Y0028189D01*
X0034160Y0028102D01*
X0034140Y0028015D01*
X0034117Y0027929D01*
X0034089Y0027844D01*
X0034058Y0027760D01*
X0034023Y0027678D01*
X0033985Y0027598D01*
X0033943Y0027519D01*
X0033898Y0027443D01*
X0033849Y0027368D01*
X0033797Y0027296D01*
X0033742Y0027226D01*
X0033683Y0027158D01*
X0033622Y0027094D01*
X0033558Y0027032D01*
X0033491Y0026973D01*
X0033422Y0026917D01*
X0033350Y0026864D01*
X0033276Y0026814D01*
X0033200Y0026768D01*
X0033122Y0026725D01*
X0033042Y0026686D01*
X0032960Y0026650D01*
X0032877Y0026618D01*
X0032793Y0026590D01*
X0032707Y0026565D01*
X0032620Y0026545D01*
X0032533Y0026528D01*
X0032444Y0026515D01*
X0032356Y0026506D01*
X0032267Y0026501D01*
X0032178Y0026500D01*
X0032089Y0026503D01*
X0032000Y0026510D01*
X0031911Y0026521D01*
X0031823Y0026536D01*
X0031736Y0026554D01*
X0031650Y0026577D01*
X0031565Y0026603D01*
X0031481Y0026634D01*
X0031399Y0026668D01*
X0031318Y0026705D01*
X0031239Y0026746D01*
X0031162Y0026791D01*
X0031087Y0026839D01*
X0031014Y0026890D01*
X0030943Y0026944D01*
X0030875Y0027002D01*
X0030810Y0027062D01*
X0030747Y0027126D01*
X0030687Y0027192D01*
X0030630Y0027261D01*
X0030577Y0027332D01*
X0030526Y0027405D01*
X0030479Y0027481D01*
X0030436Y0027558D01*
X0030395Y0027638D01*
X0030359Y0027719D01*
X0030326Y0027802D01*
X0030297Y0027886D01*
X0030271Y0027972D01*
X0030249Y0028058D01*
X0030232Y0028145D01*
X0030218Y0028233D01*
X0030208Y0028322D01*
X0030202Y0028411D01*
X0030200Y0028500D01*
X0011500Y0032000D02*
X0011500Y0045000D01*
X0030200Y0048500D02*
X0030202Y0048589D01*
X0030208Y0048678D01*
X0030218Y0048767D01*
X0030232Y0048855D01*
X0030249Y0048942D01*
X0030271Y0049028D01*
X0030297Y0049114D01*
X0030326Y0049198D01*
X0030359Y0049281D01*
X0030395Y0049362D01*
X0030436Y0049442D01*
X0030479Y0049519D01*
X0030526Y0049595D01*
X0030577Y0049668D01*
X0030630Y0049739D01*
X0030687Y0049808D01*
X0030747Y0049874D01*
X0030810Y0049938D01*
X0030875Y0049998D01*
X0030943Y0050056D01*
X0031014Y0050110D01*
X0031087Y0050161D01*
X0031162Y0050209D01*
X0031239Y0050254D01*
X0031318Y0050295D01*
X0031399Y0050332D01*
X0031481Y0050366D01*
X0031565Y0050397D01*
X0031650Y0050423D01*
X0031736Y0050446D01*
X0031823Y0050464D01*
X0031911Y0050479D01*
X0032000Y0050490D01*
X0032089Y0050497D01*
X0032178Y0050500D01*
X0032267Y0050499D01*
X0032356Y0050494D01*
X0032444Y0050485D01*
X0032533Y0050472D01*
X0032620Y0050455D01*
X0032707Y0050435D01*
X0032793Y0050410D01*
X0032877Y0050382D01*
X0032960Y0050350D01*
X0033042Y0050314D01*
X0033122Y0050275D01*
X0033200Y0050232D01*
X0033276Y0050186D01*
X0033350Y0050136D01*
X0033422Y0050083D01*
X0033491Y0050027D01*
X0033558Y0049968D01*
X0033622Y0049906D01*
X0033683Y0049842D01*
X0033742Y0049774D01*
X0033797Y0049704D01*
X0033849Y0049632D01*
X0033898Y0049557D01*
X0033943Y0049481D01*
X0033985Y0049402D01*
X0034023Y0049322D01*
X0034058Y0049240D01*
X0034089Y0049156D01*
X0034117Y0049071D01*
X0034140Y0048985D01*
X0034160Y0048898D01*
X0034176Y0048811D01*
X0034188Y0048722D01*
X0034196Y0048634D01*
X0034200Y0048545D01*
X0034200Y0048455D01*
X0034196Y0048366D01*
X0034188Y0048278D01*
X0034176Y0048189D01*
X0034160Y0048102D01*
X0034140Y0048015D01*
X0034117Y0047929D01*
X0034089Y0047844D01*
X0034058Y0047760D01*
X0034023Y0047678D01*
X0033985Y0047598D01*
X0033943Y0047519D01*
X0033898Y0047443D01*
X0033849Y0047368D01*
X0033797Y0047296D01*
X0033742Y0047226D01*
X0033683Y0047158D01*
X0033622Y0047094D01*
X0033558Y0047032D01*
X0033491Y0046973D01*
X0033422Y0046917D01*
X0033350Y0046864D01*
X0033276Y0046814D01*
X0033200Y0046768D01*
X0033122Y0046725D01*
X0033042Y0046686D01*
X0032960Y0046650D01*
X0032877Y0046618D01*
X0032793Y0046590D01*
X0032707Y0046565D01*
X0032620Y0046545D01*
X0032533Y0046528D01*
X0032444Y0046515D01*
X0032356Y0046506D01*
X0032267Y0046501D01*
X0032178Y0046500D01*
X0032089Y0046503D01*
X0032000Y0046510D01*
X0031911Y0046521D01*
X0031823Y0046536D01*
X0031736Y0046554D01*
X0031650Y0046577D01*
X0031565Y0046603D01*
X0031481Y0046634D01*
X0031399Y0046668D01*
X0031318Y0046705D01*
X0031239Y0046746D01*
X0031162Y0046791D01*
X0031087Y0046839D01*
X0031014Y0046890D01*
X0030943Y0046944D01*
X0030875Y0047002D01*
X0030810Y0047062D01*
X0030747Y0047126D01*
X0030687Y0047192D01*
X0030630Y0047261D01*
X0030577Y0047332D01*
X0030526Y0047405D01*
X0030479Y0047481D01*
X0030436Y0047558D01*
X0030395Y0047638D01*
X0030359Y0047719D01*
X0030326Y0047802D01*
X0030297Y0047886D01*
X0030271Y0047972D01*
X0030249Y0048058D01*
X0030232Y0048145D01*
X0030218Y0048233D01*
X0030208Y0048322D01*
X0030202Y0048411D01*
X0030200Y0048500D01*
X0030200Y0068500D02*
X0030202Y0068589D01*
X0030208Y0068678D01*
X0030218Y0068767D01*
X0030232Y0068855D01*
X0030249Y0068942D01*
X0030271Y0069028D01*
X0030297Y0069114D01*
X0030326Y0069198D01*
X0030359Y0069281D01*
X0030395Y0069362D01*
X0030436Y0069442D01*
X0030479Y0069519D01*
X0030526Y0069595D01*
X0030577Y0069668D01*
X0030630Y0069739D01*
X0030687Y0069808D01*
X0030747Y0069874D01*
X0030810Y0069938D01*
X0030875Y0069998D01*
X0030943Y0070056D01*
X0031014Y0070110D01*
X0031087Y0070161D01*
X0031162Y0070209D01*
X0031239Y0070254D01*
X0031318Y0070295D01*
X0031399Y0070332D01*
X0031481Y0070366D01*
X0031565Y0070397D01*
X0031650Y0070423D01*
X0031736Y0070446D01*
X0031823Y0070464D01*
X0031911Y0070479D01*
X0032000Y0070490D01*
X0032089Y0070497D01*
X0032178Y0070500D01*
X0032267Y0070499D01*
X0032356Y0070494D01*
X0032444Y0070485D01*
X0032533Y0070472D01*
X0032620Y0070455D01*
X0032707Y0070435D01*
X0032793Y0070410D01*
X0032877Y0070382D01*
X0032960Y0070350D01*
X0033042Y0070314D01*
X0033122Y0070275D01*
X0033200Y0070232D01*
X0033276Y0070186D01*
X0033350Y0070136D01*
X0033422Y0070083D01*
X0033491Y0070027D01*
X0033558Y0069968D01*
X0033622Y0069906D01*
X0033683Y0069842D01*
X0033742Y0069774D01*
X0033797Y0069704D01*
X0033849Y0069632D01*
X0033898Y0069557D01*
X0033943Y0069481D01*
X0033985Y0069402D01*
X0034023Y0069322D01*
X0034058Y0069240D01*
X0034089Y0069156D01*
X0034117Y0069071D01*
X0034140Y0068985D01*
X0034160Y0068898D01*
X0034176Y0068811D01*
X0034188Y0068722D01*
X0034196Y0068634D01*
X0034200Y0068545D01*
X0034200Y0068455D01*
X0034196Y0068366D01*
X0034188Y0068278D01*
X0034176Y0068189D01*
X0034160Y0068102D01*
X0034140Y0068015D01*
X0034117Y0067929D01*
X0034089Y0067844D01*
X0034058Y0067760D01*
X0034023Y0067678D01*
X0033985Y0067598D01*
X0033943Y0067519D01*
X0033898Y0067443D01*
X0033849Y0067368D01*
X0033797Y0067296D01*
X0033742Y0067226D01*
X0033683Y0067158D01*
X0033622Y0067094D01*
X0033558Y0067032D01*
X0033491Y0066973D01*
X0033422Y0066917D01*
X0033350Y0066864D01*
X0033276Y0066814D01*
X0033200Y0066768D01*
X0033122Y0066725D01*
X0033042Y0066686D01*
X0032960Y0066650D01*
X0032877Y0066618D01*
X0032793Y0066590D01*
X0032707Y0066565D01*
X0032620Y0066545D01*
X0032533Y0066528D01*
X0032444Y0066515D01*
X0032356Y0066506D01*
X0032267Y0066501D01*
X0032178Y0066500D01*
X0032089Y0066503D01*
X0032000Y0066510D01*
X0031911Y0066521D01*
X0031823Y0066536D01*
X0031736Y0066554D01*
X0031650Y0066577D01*
X0031565Y0066603D01*
X0031481Y0066634D01*
X0031399Y0066668D01*
X0031318Y0066705D01*
X0031239Y0066746D01*
X0031162Y0066791D01*
X0031087Y0066839D01*
X0031014Y0066890D01*
X0030943Y0066944D01*
X0030875Y0067002D01*
X0030810Y0067062D01*
X0030747Y0067126D01*
X0030687Y0067192D01*
X0030630Y0067261D01*
X0030577Y0067332D01*
X0030526Y0067405D01*
X0030479Y0067481D01*
X0030436Y0067558D01*
X0030395Y0067638D01*
X0030359Y0067719D01*
X0030326Y0067802D01*
X0030297Y0067886D01*
X0030271Y0067972D01*
X0030249Y0068058D01*
X0030232Y0068145D01*
X0030218Y0068233D01*
X0030208Y0068322D01*
X0030202Y0068411D01*
X0030200Y0068500D01*
X0030200Y0088500D02*
X0030202Y0088589D01*
X0030208Y0088678D01*
X0030218Y0088767D01*
X0030232Y0088855D01*
X0030249Y0088942D01*
X0030271Y0089028D01*
X0030297Y0089114D01*
X0030326Y0089198D01*
X0030359Y0089281D01*
X0030395Y0089362D01*
X0030436Y0089442D01*
X0030479Y0089519D01*
X0030526Y0089595D01*
X0030577Y0089668D01*
X0030630Y0089739D01*
X0030687Y0089808D01*
X0030747Y0089874D01*
X0030810Y0089938D01*
X0030875Y0089998D01*
X0030943Y0090056D01*
X0031014Y0090110D01*
X0031087Y0090161D01*
X0031162Y0090209D01*
X0031239Y0090254D01*
X0031318Y0090295D01*
X0031399Y0090332D01*
X0031481Y0090366D01*
X0031565Y0090397D01*
X0031650Y0090423D01*
X0031736Y0090446D01*
X0031823Y0090464D01*
X0031911Y0090479D01*
X0032000Y0090490D01*
X0032089Y0090497D01*
X0032178Y0090500D01*
X0032267Y0090499D01*
X0032356Y0090494D01*
X0032444Y0090485D01*
X0032533Y0090472D01*
X0032620Y0090455D01*
X0032707Y0090435D01*
X0032793Y0090410D01*
X0032877Y0090382D01*
X0032960Y0090350D01*
X0033042Y0090314D01*
X0033122Y0090275D01*
X0033200Y0090232D01*
X0033276Y0090186D01*
X0033350Y0090136D01*
X0033422Y0090083D01*
X0033491Y0090027D01*
X0033558Y0089968D01*
X0033622Y0089906D01*
X0033683Y0089842D01*
X0033742Y0089774D01*
X0033797Y0089704D01*
X0033849Y0089632D01*
X0033898Y0089557D01*
X0033943Y0089481D01*
X0033985Y0089402D01*
X0034023Y0089322D01*
X0034058Y0089240D01*
X0034089Y0089156D01*
X0034117Y0089071D01*
X0034140Y0088985D01*
X0034160Y0088898D01*
X0034176Y0088811D01*
X0034188Y0088722D01*
X0034196Y0088634D01*
X0034200Y0088545D01*
X0034200Y0088455D01*
X0034196Y0088366D01*
X0034188Y0088278D01*
X0034176Y0088189D01*
X0034160Y0088102D01*
X0034140Y0088015D01*
X0034117Y0087929D01*
X0034089Y0087844D01*
X0034058Y0087760D01*
X0034023Y0087678D01*
X0033985Y0087598D01*
X0033943Y0087519D01*
X0033898Y0087443D01*
X0033849Y0087368D01*
X0033797Y0087296D01*
X0033742Y0087226D01*
X0033683Y0087158D01*
X0033622Y0087094D01*
X0033558Y0087032D01*
X0033491Y0086973D01*
X0033422Y0086917D01*
X0033350Y0086864D01*
X0033276Y0086814D01*
X0033200Y0086768D01*
X0033122Y0086725D01*
X0033042Y0086686D01*
X0032960Y0086650D01*
X0032877Y0086618D01*
X0032793Y0086590D01*
X0032707Y0086565D01*
X0032620Y0086545D01*
X0032533Y0086528D01*
X0032444Y0086515D01*
X0032356Y0086506D01*
X0032267Y0086501D01*
X0032178Y0086500D01*
X0032089Y0086503D01*
X0032000Y0086510D01*
X0031911Y0086521D01*
X0031823Y0086536D01*
X0031736Y0086554D01*
X0031650Y0086577D01*
X0031565Y0086603D01*
X0031481Y0086634D01*
X0031399Y0086668D01*
X0031318Y0086705D01*
X0031239Y0086746D01*
X0031162Y0086791D01*
X0031087Y0086839D01*
X0031014Y0086890D01*
X0030943Y0086944D01*
X0030875Y0087002D01*
X0030810Y0087062D01*
X0030747Y0087126D01*
X0030687Y0087192D01*
X0030630Y0087261D01*
X0030577Y0087332D01*
X0030526Y0087405D01*
X0030479Y0087481D01*
X0030436Y0087558D01*
X0030395Y0087638D01*
X0030359Y0087719D01*
X0030326Y0087802D01*
X0030297Y0087886D01*
X0030271Y0087972D01*
X0030249Y0088058D01*
X0030232Y0088145D01*
X0030218Y0088233D01*
X0030208Y0088322D01*
X0030202Y0088411D01*
X0030200Y0088500D01*
X0030200Y0148500D02*
X0030202Y0148589D01*
X0030208Y0148678D01*
X0030218Y0148767D01*
X0030232Y0148855D01*
X0030249Y0148942D01*
X0030271Y0149028D01*
X0030297Y0149114D01*
X0030326Y0149198D01*
X0030359Y0149281D01*
X0030395Y0149362D01*
X0030436Y0149442D01*
X0030479Y0149519D01*
X0030526Y0149595D01*
X0030577Y0149668D01*
X0030630Y0149739D01*
X0030687Y0149808D01*
X0030747Y0149874D01*
X0030810Y0149938D01*
X0030875Y0149998D01*
X0030943Y0150056D01*
X0031014Y0150110D01*
X0031087Y0150161D01*
X0031162Y0150209D01*
X0031239Y0150254D01*
X0031318Y0150295D01*
X0031399Y0150332D01*
X0031481Y0150366D01*
X0031565Y0150397D01*
X0031650Y0150423D01*
X0031736Y0150446D01*
X0031823Y0150464D01*
X0031911Y0150479D01*
X0032000Y0150490D01*
X0032089Y0150497D01*
X0032178Y0150500D01*
X0032267Y0150499D01*
X0032356Y0150494D01*
X0032444Y0150485D01*
X0032533Y0150472D01*
X0032620Y0150455D01*
X0032707Y0150435D01*
X0032793Y0150410D01*
X0032877Y0150382D01*
X0032960Y0150350D01*
X0033042Y0150314D01*
X0033122Y0150275D01*
X0033200Y0150232D01*
X0033276Y0150186D01*
X0033350Y0150136D01*
X0033422Y0150083D01*
X0033491Y0150027D01*
X0033558Y0149968D01*
X0033622Y0149906D01*
X0033683Y0149842D01*
X0033742Y0149774D01*
X0033797Y0149704D01*
X0033849Y0149632D01*
X0033898Y0149557D01*
X0033943Y0149481D01*
X0033985Y0149402D01*
X0034023Y0149322D01*
X0034058Y0149240D01*
X0034089Y0149156D01*
X0034117Y0149071D01*
X0034140Y0148985D01*
X0034160Y0148898D01*
X0034176Y0148811D01*
X0034188Y0148722D01*
X0034196Y0148634D01*
X0034200Y0148545D01*
X0034200Y0148455D01*
X0034196Y0148366D01*
X0034188Y0148278D01*
X0034176Y0148189D01*
X0034160Y0148102D01*
X0034140Y0148015D01*
X0034117Y0147929D01*
X0034089Y0147844D01*
X0034058Y0147760D01*
X0034023Y0147678D01*
X0033985Y0147598D01*
X0033943Y0147519D01*
X0033898Y0147443D01*
X0033849Y0147368D01*
X0033797Y0147296D01*
X0033742Y0147226D01*
X0033683Y0147158D01*
X0033622Y0147094D01*
X0033558Y0147032D01*
X0033491Y0146973D01*
X0033422Y0146917D01*
X0033350Y0146864D01*
X0033276Y0146814D01*
X0033200Y0146768D01*
X0033122Y0146725D01*
X0033042Y0146686D01*
X0032960Y0146650D01*
X0032877Y0146618D01*
X0032793Y0146590D01*
X0032707Y0146565D01*
X0032620Y0146545D01*
X0032533Y0146528D01*
X0032444Y0146515D01*
X0032356Y0146506D01*
X0032267Y0146501D01*
X0032178Y0146500D01*
X0032089Y0146503D01*
X0032000Y0146510D01*
X0031911Y0146521D01*
X0031823Y0146536D01*
X0031736Y0146554D01*
X0031650Y0146577D01*
X0031565Y0146603D01*
X0031481Y0146634D01*
X0031399Y0146668D01*
X0031318Y0146705D01*
X0031239Y0146746D01*
X0031162Y0146791D01*
X0031087Y0146839D01*
X0031014Y0146890D01*
X0030943Y0146944D01*
X0030875Y0147002D01*
X0030810Y0147062D01*
X0030747Y0147126D01*
X0030687Y0147192D01*
X0030630Y0147261D01*
X0030577Y0147332D01*
X0030526Y0147405D01*
X0030479Y0147481D01*
X0030436Y0147558D01*
X0030395Y0147638D01*
X0030359Y0147719D01*
X0030326Y0147802D01*
X0030297Y0147886D01*
X0030271Y0147972D01*
X0030249Y0148058D01*
X0030232Y0148145D01*
X0030218Y0148233D01*
X0030208Y0148322D01*
X0030202Y0148411D01*
X0030200Y0148500D01*
X0071236Y0148480D02*
X0071236Y0173520D01*
X0105665Y0173520D01*
X0105665Y0150512D01*
X0071630Y0150512D01*
X0071236Y0148480D02*
X0105665Y0148480D01*
X0105665Y0150512D01*
X0111236Y0148480D02*
X0111236Y0173520D01*
X0145665Y0173520D01*
X0145665Y0150512D01*
X0111630Y0150512D01*
X0111236Y0148480D02*
X0145665Y0148480D01*
X0145665Y0150512D01*
X0151236Y0148480D02*
X0151236Y0173520D01*
X0185665Y0173520D01*
X0185665Y0150512D01*
X0151630Y0150512D01*
X0151236Y0148480D02*
X0185665Y0148480D01*
X0185665Y0150512D01*
X0191236Y0148480D02*
X0191236Y0173520D01*
X0225665Y0173520D01*
X0225665Y0150512D01*
X0191630Y0150512D01*
X0191236Y0148480D02*
X0225665Y0148480D01*
X0225665Y0150512D01*
X0303500Y0151000D02*
X0303500Y0111000D01*
X0304500Y0111000D01*
X0330500Y0111000D01*
X0340000Y0111000D01*
X0340000Y0151000D01*
X0330500Y0151000D01*
X0330500Y0157500D01*
X0330500Y0151000D02*
X0304500Y0151000D01*
X0303500Y0151000D01*
X0303500Y0191000D01*
X0304500Y0191000D01*
X0330500Y0191000D01*
X0330500Y0184500D01*
X0330500Y0191000D02*
X0340000Y0191000D01*
X0340000Y0151000D01*
X0330500Y0151000D01*
X0304500Y0151000D01*
X0304500Y0191000D01*
X0307800Y0181000D02*
X0307802Y0181089D01*
X0307808Y0181178D01*
X0307818Y0181267D01*
X0307832Y0181355D01*
X0307849Y0181442D01*
X0307871Y0181528D01*
X0307897Y0181614D01*
X0307926Y0181698D01*
X0307959Y0181781D01*
X0307995Y0181862D01*
X0308036Y0181942D01*
X0308079Y0182019D01*
X0308126Y0182095D01*
X0308177Y0182168D01*
X0308230Y0182239D01*
X0308287Y0182308D01*
X0308347Y0182374D01*
X0308410Y0182438D01*
X0308475Y0182498D01*
X0308543Y0182556D01*
X0308614Y0182610D01*
X0308687Y0182661D01*
X0308762Y0182709D01*
X0308839Y0182754D01*
X0308918Y0182795D01*
X0308999Y0182832D01*
X0309081Y0182866D01*
X0309165Y0182897D01*
X0309250Y0182923D01*
X0309336Y0182946D01*
X0309423Y0182964D01*
X0309511Y0182979D01*
X0309600Y0182990D01*
X0309689Y0182997D01*
X0309778Y0183000D01*
X0309867Y0182999D01*
X0309956Y0182994D01*
X0310044Y0182985D01*
X0310133Y0182972D01*
X0310220Y0182955D01*
X0310307Y0182935D01*
X0310393Y0182910D01*
X0310477Y0182882D01*
X0310560Y0182850D01*
X0310642Y0182814D01*
X0310722Y0182775D01*
X0310800Y0182732D01*
X0310876Y0182686D01*
X0310950Y0182636D01*
X0311022Y0182583D01*
X0311091Y0182527D01*
X0311158Y0182468D01*
X0311222Y0182406D01*
X0311283Y0182342D01*
X0311342Y0182274D01*
X0311397Y0182204D01*
X0311449Y0182132D01*
X0311498Y0182057D01*
X0311543Y0181981D01*
X0311585Y0181902D01*
X0311623Y0181822D01*
X0311658Y0181740D01*
X0311689Y0181656D01*
X0311717Y0181571D01*
X0311740Y0181485D01*
X0311760Y0181398D01*
X0311776Y0181311D01*
X0311788Y0181222D01*
X0311796Y0181134D01*
X0311800Y0181045D01*
X0311800Y0180955D01*
X0311796Y0180866D01*
X0311788Y0180778D01*
X0311776Y0180689D01*
X0311760Y0180602D01*
X0311740Y0180515D01*
X0311717Y0180429D01*
X0311689Y0180344D01*
X0311658Y0180260D01*
X0311623Y0180178D01*
X0311585Y0180098D01*
X0311543Y0180019D01*
X0311498Y0179943D01*
X0311449Y0179868D01*
X0311397Y0179796D01*
X0311342Y0179726D01*
X0311283Y0179658D01*
X0311222Y0179594D01*
X0311158Y0179532D01*
X0311091Y0179473D01*
X0311022Y0179417D01*
X0310950Y0179364D01*
X0310876Y0179314D01*
X0310800Y0179268D01*
X0310722Y0179225D01*
X0310642Y0179186D01*
X0310560Y0179150D01*
X0310477Y0179118D01*
X0310393Y0179090D01*
X0310307Y0179065D01*
X0310220Y0179045D01*
X0310133Y0179028D01*
X0310044Y0179015D01*
X0309956Y0179006D01*
X0309867Y0179001D01*
X0309778Y0179000D01*
X0309689Y0179003D01*
X0309600Y0179010D01*
X0309511Y0179021D01*
X0309423Y0179036D01*
X0309336Y0179054D01*
X0309250Y0179077D01*
X0309165Y0179103D01*
X0309081Y0179134D01*
X0308999Y0179168D01*
X0308918Y0179205D01*
X0308839Y0179246D01*
X0308762Y0179291D01*
X0308687Y0179339D01*
X0308614Y0179390D01*
X0308543Y0179444D01*
X0308475Y0179502D01*
X0308410Y0179562D01*
X0308347Y0179626D01*
X0308287Y0179692D01*
X0308230Y0179761D01*
X0308177Y0179832D01*
X0308126Y0179905D01*
X0308079Y0179981D01*
X0308036Y0180058D01*
X0307995Y0180138D01*
X0307959Y0180219D01*
X0307926Y0180302D01*
X0307897Y0180386D01*
X0307871Y0180472D01*
X0307849Y0180558D01*
X0307832Y0180645D01*
X0307818Y0180733D01*
X0307808Y0180822D01*
X0307802Y0180911D01*
X0307800Y0181000D01*
X0330500Y0177500D02*
X0330500Y0164500D01*
X0307800Y0161000D02*
X0307802Y0161089D01*
X0307808Y0161178D01*
X0307818Y0161267D01*
X0307832Y0161355D01*
X0307849Y0161442D01*
X0307871Y0161528D01*
X0307897Y0161614D01*
X0307926Y0161698D01*
X0307959Y0161781D01*
X0307995Y0161862D01*
X0308036Y0161942D01*
X0308079Y0162019D01*
X0308126Y0162095D01*
X0308177Y0162168D01*
X0308230Y0162239D01*
X0308287Y0162308D01*
X0308347Y0162374D01*
X0308410Y0162438D01*
X0308475Y0162498D01*
X0308543Y0162556D01*
X0308614Y0162610D01*
X0308687Y0162661D01*
X0308762Y0162709D01*
X0308839Y0162754D01*
X0308918Y0162795D01*
X0308999Y0162832D01*
X0309081Y0162866D01*
X0309165Y0162897D01*
X0309250Y0162923D01*
X0309336Y0162946D01*
X0309423Y0162964D01*
X0309511Y0162979D01*
X0309600Y0162990D01*
X0309689Y0162997D01*
X0309778Y0163000D01*
X0309867Y0162999D01*
X0309956Y0162994D01*
X0310044Y0162985D01*
X0310133Y0162972D01*
X0310220Y0162955D01*
X0310307Y0162935D01*
X0310393Y0162910D01*
X0310477Y0162882D01*
X0310560Y0162850D01*
X0310642Y0162814D01*
X0310722Y0162775D01*
X0310800Y0162732D01*
X0310876Y0162686D01*
X0310950Y0162636D01*
X0311022Y0162583D01*
X0311091Y0162527D01*
X0311158Y0162468D01*
X0311222Y0162406D01*
X0311283Y0162342D01*
X0311342Y0162274D01*
X0311397Y0162204D01*
X0311449Y0162132D01*
X0311498Y0162057D01*
X0311543Y0161981D01*
X0311585Y0161902D01*
X0311623Y0161822D01*
X0311658Y0161740D01*
X0311689Y0161656D01*
X0311717Y0161571D01*
X0311740Y0161485D01*
X0311760Y0161398D01*
X0311776Y0161311D01*
X0311788Y0161222D01*
X0311796Y0161134D01*
X0311800Y0161045D01*
X0311800Y0160955D01*
X0311796Y0160866D01*
X0311788Y0160778D01*
X0311776Y0160689D01*
X0311760Y0160602D01*
X0311740Y0160515D01*
X0311717Y0160429D01*
X0311689Y0160344D01*
X0311658Y0160260D01*
X0311623Y0160178D01*
X0311585Y0160098D01*
X0311543Y0160019D01*
X0311498Y0159943D01*
X0311449Y0159868D01*
X0311397Y0159796D01*
X0311342Y0159726D01*
X0311283Y0159658D01*
X0311222Y0159594D01*
X0311158Y0159532D01*
X0311091Y0159473D01*
X0311022Y0159417D01*
X0310950Y0159364D01*
X0310876Y0159314D01*
X0310800Y0159268D01*
X0310722Y0159225D01*
X0310642Y0159186D01*
X0310560Y0159150D01*
X0310477Y0159118D01*
X0310393Y0159090D01*
X0310307Y0159065D01*
X0310220Y0159045D01*
X0310133Y0159028D01*
X0310044Y0159015D01*
X0309956Y0159006D01*
X0309867Y0159001D01*
X0309778Y0159000D01*
X0309689Y0159003D01*
X0309600Y0159010D01*
X0309511Y0159021D01*
X0309423Y0159036D01*
X0309336Y0159054D01*
X0309250Y0159077D01*
X0309165Y0159103D01*
X0309081Y0159134D01*
X0308999Y0159168D01*
X0308918Y0159205D01*
X0308839Y0159246D01*
X0308762Y0159291D01*
X0308687Y0159339D01*
X0308614Y0159390D01*
X0308543Y0159444D01*
X0308475Y0159502D01*
X0308410Y0159562D01*
X0308347Y0159626D01*
X0308287Y0159692D01*
X0308230Y0159761D01*
X0308177Y0159832D01*
X0308126Y0159905D01*
X0308079Y0159981D01*
X0308036Y0160058D01*
X0307995Y0160138D01*
X0307959Y0160219D01*
X0307926Y0160302D01*
X0307897Y0160386D01*
X0307871Y0160472D01*
X0307849Y0160558D01*
X0307832Y0160645D01*
X0307818Y0160733D01*
X0307808Y0160822D01*
X0307802Y0160911D01*
X0307800Y0161000D01*
X0304500Y0151000D02*
X0303500Y0151000D01*
X0304500Y0151000D02*
X0304500Y0111000D01*
X0308500Y0106000D02*
X0306000Y0103500D01*
X0306000Y0098500D01*
X0308500Y0096000D01*
X0313500Y0096000D01*
X0316000Y0098500D01*
X0318500Y0096000D01*
X0323500Y0096000D01*
X0326000Y0098500D01*
X0328500Y0096000D01*
X0333500Y0096000D01*
X0336000Y0098500D01*
X0336000Y0103500D01*
X0333500Y0106000D01*
X0328500Y0106000D01*
X0326000Y0103500D01*
X0323500Y0106000D01*
X0318500Y0106000D01*
X0316000Y0103500D01*
X0313500Y0106000D01*
X0308500Y0106000D01*
X0330500Y0111000D02*
X0330500Y0117500D01*
X0330500Y0124500D02*
X0330500Y0137500D01*
X0330500Y0144500D02*
X0330500Y0151000D01*
X0307800Y0141000D02*
X0307802Y0141089D01*
X0307808Y0141178D01*
X0307818Y0141267D01*
X0307832Y0141355D01*
X0307849Y0141442D01*
X0307871Y0141528D01*
X0307897Y0141614D01*
X0307926Y0141698D01*
X0307959Y0141781D01*
X0307995Y0141862D01*
X0308036Y0141942D01*
X0308079Y0142019D01*
X0308126Y0142095D01*
X0308177Y0142168D01*
X0308230Y0142239D01*
X0308287Y0142308D01*
X0308347Y0142374D01*
X0308410Y0142438D01*
X0308475Y0142498D01*
X0308543Y0142556D01*
X0308614Y0142610D01*
X0308687Y0142661D01*
X0308762Y0142709D01*
X0308839Y0142754D01*
X0308918Y0142795D01*
X0308999Y0142832D01*
X0309081Y0142866D01*
X0309165Y0142897D01*
X0309250Y0142923D01*
X0309336Y0142946D01*
X0309423Y0142964D01*
X0309511Y0142979D01*
X0309600Y0142990D01*
X0309689Y0142997D01*
X0309778Y0143000D01*
X0309867Y0142999D01*
X0309956Y0142994D01*
X0310044Y0142985D01*
X0310133Y0142972D01*
X0310220Y0142955D01*
X0310307Y0142935D01*
X0310393Y0142910D01*
X0310477Y0142882D01*
X0310560Y0142850D01*
X0310642Y0142814D01*
X0310722Y0142775D01*
X0310800Y0142732D01*
X0310876Y0142686D01*
X0310950Y0142636D01*
X0311022Y0142583D01*
X0311091Y0142527D01*
X0311158Y0142468D01*
X0311222Y0142406D01*
X0311283Y0142342D01*
X0311342Y0142274D01*
X0311397Y0142204D01*
X0311449Y0142132D01*
X0311498Y0142057D01*
X0311543Y0141981D01*
X0311585Y0141902D01*
X0311623Y0141822D01*
X0311658Y0141740D01*
X0311689Y0141656D01*
X0311717Y0141571D01*
X0311740Y0141485D01*
X0311760Y0141398D01*
X0311776Y0141311D01*
X0311788Y0141222D01*
X0311796Y0141134D01*
X0311800Y0141045D01*
X0311800Y0140955D01*
X0311796Y0140866D01*
X0311788Y0140778D01*
X0311776Y0140689D01*
X0311760Y0140602D01*
X0311740Y0140515D01*
X0311717Y0140429D01*
X0311689Y0140344D01*
X0311658Y0140260D01*
X0311623Y0140178D01*
X0311585Y0140098D01*
X0311543Y0140019D01*
X0311498Y0139943D01*
X0311449Y0139868D01*
X0311397Y0139796D01*
X0311342Y0139726D01*
X0311283Y0139658D01*
X0311222Y0139594D01*
X0311158Y0139532D01*
X0311091Y0139473D01*
X0311022Y0139417D01*
X0310950Y0139364D01*
X0310876Y0139314D01*
X0310800Y0139268D01*
X0310722Y0139225D01*
X0310642Y0139186D01*
X0310560Y0139150D01*
X0310477Y0139118D01*
X0310393Y0139090D01*
X0310307Y0139065D01*
X0310220Y0139045D01*
X0310133Y0139028D01*
X0310044Y0139015D01*
X0309956Y0139006D01*
X0309867Y0139001D01*
X0309778Y0139000D01*
X0309689Y0139003D01*
X0309600Y0139010D01*
X0309511Y0139021D01*
X0309423Y0139036D01*
X0309336Y0139054D01*
X0309250Y0139077D01*
X0309165Y0139103D01*
X0309081Y0139134D01*
X0308999Y0139168D01*
X0308918Y0139205D01*
X0308839Y0139246D01*
X0308762Y0139291D01*
X0308687Y0139339D01*
X0308614Y0139390D01*
X0308543Y0139444D01*
X0308475Y0139502D01*
X0308410Y0139562D01*
X0308347Y0139626D01*
X0308287Y0139692D01*
X0308230Y0139761D01*
X0308177Y0139832D01*
X0308126Y0139905D01*
X0308079Y0139981D01*
X0308036Y0140058D01*
X0307995Y0140138D01*
X0307959Y0140219D01*
X0307926Y0140302D01*
X0307897Y0140386D01*
X0307871Y0140472D01*
X0307849Y0140558D01*
X0307832Y0140645D01*
X0307818Y0140733D01*
X0307808Y0140822D01*
X0307802Y0140911D01*
X0307800Y0141000D01*
X0307800Y0121000D02*
X0307802Y0121089D01*
X0307808Y0121178D01*
X0307818Y0121267D01*
X0307832Y0121355D01*
X0307849Y0121442D01*
X0307871Y0121528D01*
X0307897Y0121614D01*
X0307926Y0121698D01*
X0307959Y0121781D01*
X0307995Y0121862D01*
X0308036Y0121942D01*
X0308079Y0122019D01*
X0308126Y0122095D01*
X0308177Y0122168D01*
X0308230Y0122239D01*
X0308287Y0122308D01*
X0308347Y0122374D01*
X0308410Y0122438D01*
X0308475Y0122498D01*
X0308543Y0122556D01*
X0308614Y0122610D01*
X0308687Y0122661D01*
X0308762Y0122709D01*
X0308839Y0122754D01*
X0308918Y0122795D01*
X0308999Y0122832D01*
X0309081Y0122866D01*
X0309165Y0122897D01*
X0309250Y0122923D01*
X0309336Y0122946D01*
X0309423Y0122964D01*
X0309511Y0122979D01*
X0309600Y0122990D01*
X0309689Y0122997D01*
X0309778Y0123000D01*
X0309867Y0122999D01*
X0309956Y0122994D01*
X0310044Y0122985D01*
X0310133Y0122972D01*
X0310220Y0122955D01*
X0310307Y0122935D01*
X0310393Y0122910D01*
X0310477Y0122882D01*
X0310560Y0122850D01*
X0310642Y0122814D01*
X0310722Y0122775D01*
X0310800Y0122732D01*
X0310876Y0122686D01*
X0310950Y0122636D01*
X0311022Y0122583D01*
X0311091Y0122527D01*
X0311158Y0122468D01*
X0311222Y0122406D01*
X0311283Y0122342D01*
X0311342Y0122274D01*
X0311397Y0122204D01*
X0311449Y0122132D01*
X0311498Y0122057D01*
X0311543Y0121981D01*
X0311585Y0121902D01*
X0311623Y0121822D01*
X0311658Y0121740D01*
X0311689Y0121656D01*
X0311717Y0121571D01*
X0311740Y0121485D01*
X0311760Y0121398D01*
X0311776Y0121311D01*
X0311788Y0121222D01*
X0311796Y0121134D01*
X0311800Y0121045D01*
X0311800Y0120955D01*
X0311796Y0120866D01*
X0311788Y0120778D01*
X0311776Y0120689D01*
X0311760Y0120602D01*
X0311740Y0120515D01*
X0311717Y0120429D01*
X0311689Y0120344D01*
X0311658Y0120260D01*
X0311623Y0120178D01*
X0311585Y0120098D01*
X0311543Y0120019D01*
X0311498Y0119943D01*
X0311449Y0119868D01*
X0311397Y0119796D01*
X0311342Y0119726D01*
X0311283Y0119658D01*
X0311222Y0119594D01*
X0311158Y0119532D01*
X0311091Y0119473D01*
X0311022Y0119417D01*
X0310950Y0119364D01*
X0310876Y0119314D01*
X0310800Y0119268D01*
X0310722Y0119225D01*
X0310642Y0119186D01*
X0310560Y0119150D01*
X0310477Y0119118D01*
X0310393Y0119090D01*
X0310307Y0119065D01*
X0310220Y0119045D01*
X0310133Y0119028D01*
X0310044Y0119015D01*
X0309956Y0119006D01*
X0309867Y0119001D01*
X0309778Y0119000D01*
X0309689Y0119003D01*
X0309600Y0119010D01*
X0309511Y0119021D01*
X0309423Y0119036D01*
X0309336Y0119054D01*
X0309250Y0119077D01*
X0309165Y0119103D01*
X0309081Y0119134D01*
X0308999Y0119168D01*
X0308918Y0119205D01*
X0308839Y0119246D01*
X0308762Y0119291D01*
X0308687Y0119339D01*
X0308614Y0119390D01*
X0308543Y0119444D01*
X0308475Y0119502D01*
X0308410Y0119562D01*
X0308347Y0119626D01*
X0308287Y0119692D01*
X0308230Y0119761D01*
X0308177Y0119832D01*
X0308126Y0119905D01*
X0308079Y0119981D01*
X0308036Y0120058D01*
X0307995Y0120138D01*
X0307959Y0120219D01*
X0307926Y0120302D01*
X0307897Y0120386D01*
X0307871Y0120472D01*
X0307849Y0120558D01*
X0307832Y0120645D01*
X0307818Y0120733D01*
X0307808Y0120822D01*
X0307802Y0120911D01*
X0307800Y0121000D01*
X0308500Y0091000D02*
X0306000Y0088500D01*
X0306000Y0083500D01*
X0308500Y0081000D01*
X0313500Y0081000D01*
X0316000Y0083500D01*
X0318500Y0081000D01*
X0323500Y0081000D01*
X0326000Y0083500D01*
X0328500Y0081000D01*
X0333500Y0081000D01*
X0336000Y0083500D01*
X0336000Y0088500D01*
X0333500Y0091000D01*
X0328500Y0091000D01*
X0326000Y0088500D01*
X0323500Y0091000D01*
X0318500Y0091000D01*
X0316000Y0088500D01*
X0313500Y0091000D01*
X0308500Y0091000D01*
X0308500Y0076000D02*
X0306000Y0073500D01*
X0306000Y0068500D01*
X0308500Y0066000D01*
X0313500Y0066000D01*
X0316000Y0068500D01*
X0318500Y0066000D01*
X0323500Y0066000D01*
X0326000Y0068500D01*
X0328500Y0066000D01*
X0333500Y0066000D01*
X0336000Y0068500D01*
X0336000Y0073500D01*
X0333500Y0076000D01*
X0328500Y0076000D01*
X0326000Y0073500D01*
X0323500Y0076000D01*
X0318500Y0076000D01*
X0316000Y0073500D01*
X0313500Y0076000D01*
X0308500Y0076000D01*
D16*
X0302751Y0073254D02*
X0301250Y0071753D01*
X0302751Y0073254D02*
X0302751Y0068750D01*
X0301250Y0068750D02*
X0304253Y0068750D01*
X0318750Y0071001D02*
X0319501Y0070250D01*
X0320251Y0070250D01*
X0321002Y0071001D01*
X0321002Y0074754D01*
X0320251Y0074754D02*
X0321753Y0074754D01*
X0323354Y0074003D02*
X0324105Y0074754D01*
X0325606Y0074754D01*
X0326356Y0074003D01*
X0326356Y0073253D01*
X0325606Y0072502D01*
X0326356Y0071751D01*
X0326356Y0071001D01*
X0325606Y0070250D01*
X0324105Y0070250D01*
X0323354Y0071001D01*
X0324855Y0072502D02*
X0325606Y0072502D01*
X0326356Y0082750D02*
X0323354Y0082750D01*
X0326356Y0085753D01*
X0326356Y0086503D01*
X0325606Y0087254D01*
X0324105Y0087254D01*
X0323354Y0086503D01*
X0321753Y0087254D02*
X0320251Y0087254D01*
X0321002Y0087254D02*
X0321002Y0083501D01*
X0320251Y0082750D01*
X0319501Y0082750D01*
X0318750Y0083501D01*
X0304253Y0083750D02*
X0301250Y0083750D01*
X0302751Y0083750D02*
X0302751Y0088254D01*
X0301250Y0086753D01*
X0318750Y0098501D02*
X0319501Y0097750D01*
X0320251Y0097750D01*
X0321002Y0098501D01*
X0321002Y0102254D01*
X0320251Y0102254D02*
X0321753Y0102254D01*
X0323354Y0100753D02*
X0324855Y0102254D01*
X0324855Y0097750D01*
X0323354Y0097750D02*
X0326356Y0097750D01*
X0304253Y0098750D02*
X0301250Y0098750D01*
X0302751Y0098750D02*
X0302751Y0103254D01*
X0301250Y0101753D01*
X0023754Y0102750D02*
X0023754Y0100498D01*
X0023003Y0099747D01*
X0022253Y0099747D01*
X0021502Y0100498D01*
X0021502Y0102750D01*
X0019250Y0102750D02*
X0023754Y0102750D01*
X0021502Y0100498D02*
X0020751Y0099747D01*
X0020001Y0099747D01*
X0019250Y0100498D01*
X0019250Y0102750D01*
X0021502Y0098146D02*
X0021502Y0095144D01*
X0023754Y0095894D02*
X0021502Y0098146D01*
X0019250Y0095894D02*
X0023754Y0095894D01*
D17*
X0248421Y0085764D02*
X0288579Y0085764D01*
X0288579Y0106236D01*
X0248421Y0106236D01*
D18*
X0222280Y0071374D03*
X0182280Y0071374D03*
X0142280Y0071374D03*
X0102280Y0071374D03*
X0114720Y0153126D03*
X0074720Y0153126D03*
X0154720Y0153126D03*
X0194720Y0153126D03*
M02*
