G75*
%MOIN*%
%OFA0B0*%
%FSLAX25Y25*%
%IPPOS*%
%LPD*%
%AMOC8*
5,1,8,0,0,1.08239X$1,22.5*
%
%ADD10C,0.00000*%
%ADD11R,0.07087X0.06693*%
%ADD12R,0.01575X0.05906*%
%ADD13R,0.07008X0.05984*%
%ADD14R,0.05906X0.05118*%
%ADD15R,0.05118X0.05906*%
D10*
X0001000Y0001000D02*
X0001000Y0195961D01*
X0339701Y0195961D01*
X0339701Y0001000D01*
X0001000Y0001000D01*
D11*
X0267929Y0016000D03*
X0284071Y0016000D03*
D12*
X0285134Y0081728D03*
X0282575Y0081728D03*
X0280016Y0081728D03*
X0277457Y0081728D03*
X0274898Y0081728D03*
X0272339Y0081728D03*
X0269780Y0081728D03*
X0267220Y0081728D03*
X0264661Y0081728D03*
X0262102Y0081728D03*
X0259543Y0081728D03*
X0256984Y0081728D03*
X0254425Y0081728D03*
X0251866Y0081728D03*
X0251866Y0110272D03*
X0254425Y0110272D03*
X0256984Y0110272D03*
X0259543Y0110272D03*
X0262102Y0110272D03*
X0264661Y0110272D03*
X0267220Y0110272D03*
X0269780Y0110272D03*
X0272339Y0110272D03*
X0274898Y0110272D03*
X0277457Y0110272D03*
X0280016Y0110272D03*
X0282575Y0110272D03*
X0285134Y0110272D03*
D13*
X0218500Y0081787D03*
X0208500Y0081787D03*
X0198500Y0081787D03*
X0178500Y0081787D03*
X0168500Y0081787D03*
X0158500Y0081787D03*
X0138500Y0081787D03*
X0128500Y0081787D03*
X0118500Y0081787D03*
X0098500Y0081787D03*
X0088500Y0081787D03*
X0078500Y0081787D03*
X0078500Y0045213D03*
X0088500Y0045213D03*
X0098500Y0045213D03*
X0118500Y0045213D03*
X0128500Y0045213D03*
X0138500Y0045213D03*
X0158500Y0045213D03*
X0168500Y0045213D03*
X0178500Y0045213D03*
X0198500Y0045213D03*
X0208500Y0045213D03*
X0218500Y0045213D03*
X0218500Y0142713D03*
X0208500Y0142713D03*
X0198500Y0142713D03*
X0178500Y0142713D03*
X0168500Y0142713D03*
X0158500Y0142713D03*
X0138500Y0142713D03*
X0128500Y0142713D03*
X0118500Y0142713D03*
X0098500Y0142713D03*
X0088500Y0142713D03*
X0078500Y0142713D03*
X0078500Y0179287D03*
X0088500Y0179287D03*
X0098500Y0179287D03*
X0118500Y0179287D03*
X0128500Y0179287D03*
X0138500Y0179287D03*
X0158500Y0179287D03*
X0168500Y0179287D03*
X0178500Y0179287D03*
X0198500Y0179287D03*
X0208500Y0179287D03*
X0218500Y0179287D03*
D14*
X0198500Y0132240D03*
X0198500Y0124760D03*
X0158500Y0124760D03*
X0158500Y0132240D03*
X0118500Y0132240D03*
X0118500Y0124760D03*
X0078500Y0124760D03*
X0078500Y0132240D03*
D15*
X0099760Y0091000D03*
X0107240Y0091000D03*
X0139760Y0091000D03*
X0147240Y0091000D03*
X0179760Y0091000D03*
X0187240Y0091000D03*
X0219760Y0091000D03*
X0227240Y0091000D03*
M02*
