G75*
%MOIN*%
%OFA0B0*%
%FSLAX25Y25*%
%IPPOS*%
%LPD*%
%AMOC8*
5,1,8,0,0,1.08239X$1,22.5*
%
%ADD10C,0.00000*%
%ADD11R,0.07087X0.06693*%
%ADD12C,0.07050*%
%ADD13R,0.07008X0.05984*%
%ADD14R,0.05118X0.05906*%
%ADD15R,0.05906X0.05118*%
%ADD16C,0.06000*%
%ADD17C,0.03562*%
%ADD18C,0.01000*%
%ADD19C,0.01200*%
%ADD20C,0.04724*%
%ADD21C,0.01600*%
D10*
X0001000Y0001000D02*
X0001000Y0195961D01*
X0339701Y0195961D01*
X0339701Y0001000D01*
X0001000Y0001000D01*
D11*
X0267929Y0016000D03*
X0284071Y0016000D03*
D12*
X0319975Y0016000D02*
X0327025Y0016000D01*
X0327025Y0036000D02*
X0319975Y0036000D01*
X0319975Y0121000D02*
X0327025Y0121000D01*
X0327025Y0141000D02*
X0319975Y0141000D01*
X0319975Y0161000D02*
X0327025Y0161000D01*
X0327025Y0181000D02*
X0319975Y0181000D01*
X0022025Y0168500D02*
X0014975Y0168500D01*
X0014975Y0148500D02*
X0022025Y0148500D01*
X0022025Y0128500D02*
X0014975Y0128500D01*
X0014975Y0108500D02*
X0022025Y0108500D01*
X0022025Y0088500D02*
X0014975Y0088500D01*
X0014975Y0068500D02*
X0022025Y0068500D01*
X0022025Y0048500D02*
X0014975Y0048500D01*
X0014975Y0028500D02*
X0022025Y0028500D01*
D13*
X0078500Y0017713D03*
X0088500Y0017713D03*
X0098500Y0017713D03*
X0118500Y0017713D03*
X0128500Y0017713D03*
X0138500Y0017713D03*
X0158500Y0017713D03*
X0168500Y0017713D03*
X0178500Y0017713D03*
X0198500Y0017713D03*
X0208500Y0017713D03*
X0218500Y0017713D03*
X0218500Y0054287D03*
X0208500Y0054287D03*
X0198500Y0054287D03*
X0178500Y0054287D03*
X0168500Y0054287D03*
X0158500Y0054287D03*
X0138500Y0054287D03*
X0128500Y0054287D03*
X0118500Y0054287D03*
X0098500Y0054287D03*
X0088500Y0054287D03*
X0078500Y0054287D03*
X0078500Y0115213D03*
X0088500Y0115213D03*
X0098500Y0115213D03*
X0118500Y0115213D03*
X0128500Y0115213D03*
X0138500Y0115213D03*
X0158500Y0115213D03*
X0168500Y0115213D03*
X0178500Y0115213D03*
X0198500Y0115213D03*
X0208500Y0115213D03*
X0218500Y0115213D03*
X0218500Y0151787D03*
X0208500Y0151787D03*
X0198500Y0151787D03*
X0178500Y0151787D03*
X0168500Y0151787D03*
X0158500Y0151787D03*
X0138500Y0151787D03*
X0128500Y0151787D03*
X0118500Y0151787D03*
X0098500Y0151787D03*
X0088500Y0151787D03*
X0078500Y0151787D03*
D14*
X0099760Y0106000D03*
X0107240Y0106000D03*
X0139760Y0106000D03*
X0147240Y0106000D03*
X0179760Y0106000D03*
X0187240Y0106000D03*
X0219760Y0106000D03*
X0227240Y0106000D03*
D15*
X0198500Y0072240D03*
X0198500Y0064760D03*
X0158500Y0064760D03*
X0158500Y0072240D03*
X0118500Y0072240D03*
X0118500Y0064760D03*
X0078500Y0064760D03*
X0078500Y0072240D03*
D16*
X0311000Y0074000D02*
X0311000Y0068000D01*
X0321000Y0068000D02*
X0321000Y0074000D01*
X0331000Y0074000D02*
X0331000Y0068000D01*
X0331000Y0083000D02*
X0331000Y0089000D01*
X0321000Y0089000D02*
X0321000Y0083000D01*
X0311000Y0083000D02*
X0311000Y0089000D01*
X0311000Y0098000D02*
X0311000Y0104000D01*
X0321000Y0104000D02*
X0321000Y0098000D01*
X0331000Y0098000D02*
X0331000Y0104000D01*
D17*
X0286000Y0071000D03*
X0283500Y0066000D03*
X0268500Y0091000D03*
X0263500Y0091000D03*
X0258500Y0091000D03*
X0253500Y0091000D03*
X0251000Y0101000D03*
X0256000Y0101000D03*
X0261000Y0101000D03*
X0266000Y0101000D03*
X0208500Y0126000D03*
X0168500Y0126000D03*
X0128500Y0126000D03*
X0088500Y0126000D03*
X0088500Y0071000D03*
X0128500Y0071000D03*
X0168500Y0071000D03*
X0208500Y0071000D03*
D18*
X0208500Y0054287D01*
X0208500Y0048500D01*
X0211000Y0046000D01*
X0198500Y0054287D02*
X0198500Y0064760D01*
X0198500Y0072240D02*
X0199760Y0073500D01*
X0199760Y0074760D01*
X0201000Y0076000D01*
X0231000Y0076000D01*
X0236000Y0071000D01*
X0256000Y0071000D01*
X0258500Y0073500D01*
X0258500Y0081000D01*
X0268500Y0091000D01*
X0263500Y0091000D02*
X0256000Y0083500D01*
X0256000Y0076000D01*
X0253500Y0073500D01*
X0238500Y0073500D01*
X0233500Y0078500D01*
X0164760Y0078500D01*
X0158500Y0072240D01*
X0168500Y0071000D02*
X0168500Y0054287D01*
X0168500Y0048500D01*
X0171000Y0046000D01*
X0158500Y0054287D02*
X0158500Y0064760D01*
X0128500Y0071000D02*
X0128500Y0054287D01*
X0128500Y0048500D01*
X0131000Y0046000D01*
X0118500Y0054287D02*
X0118500Y0064760D01*
X0118500Y0072240D02*
X0127260Y0081000D01*
X0236000Y0081000D01*
X0241000Y0076000D01*
X0251000Y0076000D01*
X0253500Y0078500D01*
X0253500Y0086000D01*
X0258500Y0091000D01*
X0253500Y0091000D02*
X0251000Y0088500D01*
X0251000Y0081000D01*
X0248500Y0078500D01*
X0243500Y0078500D01*
X0238500Y0083500D01*
X0089760Y0083500D01*
X0078500Y0072240D01*
X0088500Y0071000D02*
X0088500Y0054287D01*
X0088500Y0048500D01*
X0091000Y0046000D01*
X0078500Y0054287D02*
X0078500Y0064760D01*
X0117240Y0096000D02*
X0107240Y0106000D01*
X0099760Y0106000D02*
X0098500Y0107260D01*
X0098500Y0115213D01*
X0088500Y0115213D02*
X0088500Y0126000D01*
X0128500Y0126000D02*
X0128500Y0115213D01*
X0138500Y0115213D02*
X0138500Y0107260D01*
X0139760Y0106000D01*
X0147240Y0106000D02*
X0154740Y0098500D01*
X0233500Y0098500D01*
X0241000Y0106000D01*
X0251000Y0106000D01*
X0256000Y0101000D01*
X0261000Y0101000D02*
X0253500Y0108500D01*
X0238500Y0108500D01*
X0231000Y0101000D01*
X0192240Y0101000D01*
X0187240Y0106000D01*
X0179760Y0106000D02*
X0178500Y0107260D01*
X0178500Y0115213D01*
X0168500Y0115213D02*
X0168500Y0126000D01*
X0208500Y0126000D02*
X0208500Y0115213D01*
X0218500Y0115213D02*
X0218500Y0107260D01*
X0219760Y0106000D01*
X0227240Y0106000D02*
X0231000Y0106000D01*
X0236000Y0111000D01*
X0256000Y0111000D01*
X0266000Y0101000D01*
X0251000Y0101000D02*
X0248500Y0103500D01*
X0243500Y0103500D01*
X0236000Y0096000D01*
X0117240Y0096000D01*
X0283500Y0066000D02*
X0298500Y0066000D01*
X0301000Y0068500D01*
X0301000Y0138500D01*
X0323500Y0161000D01*
X0323500Y0181000D02*
X0298500Y0156000D01*
X0298500Y0073500D01*
X0296000Y0071000D01*
X0286000Y0071000D01*
D19*
X0311000Y0071000D02*
X0311000Y0086000D01*
X0311000Y0101000D01*
X0311000Y0108500D01*
X0323500Y0121000D01*
X0331000Y0071000D02*
X0306000Y0046000D01*
X0211000Y0046000D01*
X0171000Y0046000D01*
X0131000Y0046000D01*
X0091000Y0046000D01*
D20*
X0081000Y0036000D03*
X0128500Y0033500D03*
X0168500Y0033500D03*
X0208500Y0033500D03*
X0081000Y0161000D03*
X0128500Y0163500D03*
X0168500Y0163500D03*
X0208500Y0163500D03*
D21*
X0201000Y0163500D01*
X0198500Y0161000D01*
X0198500Y0151787D01*
X0198500Y0188500D01*
X0196000Y0191000D01*
X0041000Y0191000D01*
X0018500Y0168500D01*
X0018500Y0148500D02*
X0051000Y0181000D01*
X0156000Y0181000D01*
X0158500Y0178500D01*
X0158500Y0151787D01*
X0158500Y0161000D01*
X0161000Y0163500D01*
X0168500Y0163500D01*
X0178500Y0151787D02*
X0178500Y0143500D01*
X0176000Y0141000D01*
X0136000Y0141000D01*
X0138500Y0143500D01*
X0138500Y0151787D01*
X0136000Y0141000D02*
X0096000Y0141000D01*
X0076000Y0141000D01*
X0056000Y0121000D01*
X0056000Y0018500D01*
X0057250Y0017250D01*
X0068500Y0006000D01*
X0081000Y0006000D01*
X0121000Y0006000D01*
X0161000Y0006000D01*
X0201000Y0006000D01*
X0198500Y0008500D01*
X0198500Y0017713D01*
X0201000Y0006000D02*
X0266000Y0006000D01*
X0267929Y0007929D01*
X0267929Y0016000D01*
X0284071Y0016000D02*
X0323500Y0016000D01*
X0218500Y0017713D02*
X0218500Y0031000D01*
X0216000Y0033500D01*
X0208500Y0033500D01*
X0178500Y0031000D02*
X0178500Y0017713D01*
X0161000Y0006000D02*
X0158500Y0008500D01*
X0158500Y0017713D01*
X0138500Y0017713D02*
X0138500Y0031000D01*
X0136000Y0033500D01*
X0128500Y0033500D01*
X0118500Y0017713D02*
X0118500Y0008500D01*
X0121000Y0006000D01*
X0098500Y0017713D02*
X0098500Y0033500D01*
X0096000Y0036000D01*
X0081000Y0036000D01*
X0078500Y0017713D02*
X0078500Y0008500D01*
X0081000Y0006000D01*
X0168500Y0033500D02*
X0176000Y0033500D01*
X0178500Y0031000D01*
X0061787Y0151787D02*
X0018500Y0108500D01*
X0018500Y0128500D02*
X0061000Y0171000D01*
X0116000Y0171000D01*
X0118500Y0168500D01*
X0118500Y0151787D01*
X0118500Y0161000D01*
X0121000Y0163500D01*
X0128500Y0163500D01*
X0098500Y0151787D02*
X0098500Y0143500D01*
X0096000Y0141000D01*
X0078500Y0151787D02*
X0076787Y0153500D01*
X0078500Y0151787D02*
X0061787Y0151787D01*
X0078500Y0151787D02*
X0078500Y0158500D01*
X0081000Y0161000D01*
X0176000Y0141000D02*
X0216000Y0141000D01*
X0218500Y0143500D01*
X0218500Y0151787D01*
M02*
