G75*
%MOIN*%
%OFA0B0*%
%FSLAX25Y25*%
%IPPOS*%
%LPD*%
%AMOC8*
5,1,8,0,0,1.08239X$1,22.5*
%
%ADD10C,0.00000*%
%ADD11R,0.07487X0.07093*%
%ADD12C,0.07450*%
%ADD13R,0.07408X0.06384*%
%ADD14R,0.05518X0.06306*%
%ADD15R,0.06306X0.05518*%
%ADD16C,0.06400*%
D10*
X0001000Y0001000D02*
X0001000Y0195961D01*
X0339701Y0195961D01*
X0339701Y0001000D01*
X0001000Y0001000D01*
D11*
X0267929Y0016000D03*
X0284071Y0016000D03*
D12*
X0319975Y0016000D02*
X0327025Y0016000D01*
X0327025Y0036000D02*
X0319975Y0036000D01*
X0319975Y0121000D02*
X0327025Y0121000D01*
X0327025Y0141000D02*
X0319975Y0141000D01*
X0319975Y0161000D02*
X0327025Y0161000D01*
X0327025Y0181000D02*
X0319975Y0181000D01*
X0022025Y0168500D02*
X0014975Y0168500D01*
X0014975Y0148500D02*
X0022025Y0148500D01*
X0022025Y0128500D02*
X0014975Y0128500D01*
X0014975Y0108500D02*
X0022025Y0108500D01*
X0022025Y0088500D02*
X0014975Y0088500D01*
X0014975Y0068500D02*
X0022025Y0068500D01*
X0022025Y0048500D02*
X0014975Y0048500D01*
X0014975Y0028500D02*
X0022025Y0028500D01*
D13*
X0078500Y0017713D03*
X0088500Y0017713D03*
X0098500Y0017713D03*
X0118500Y0017713D03*
X0128500Y0017713D03*
X0138500Y0017713D03*
X0158500Y0017713D03*
X0168500Y0017713D03*
X0178500Y0017713D03*
X0198500Y0017713D03*
X0208500Y0017713D03*
X0218500Y0017713D03*
X0218500Y0054287D03*
X0208500Y0054287D03*
X0198500Y0054287D03*
X0178500Y0054287D03*
X0168500Y0054287D03*
X0158500Y0054287D03*
X0138500Y0054287D03*
X0128500Y0054287D03*
X0118500Y0054287D03*
X0098500Y0054287D03*
X0088500Y0054287D03*
X0078500Y0054287D03*
X0078500Y0115213D03*
X0088500Y0115213D03*
X0098500Y0115213D03*
X0118500Y0115213D03*
X0128500Y0115213D03*
X0138500Y0115213D03*
X0158500Y0115213D03*
X0168500Y0115213D03*
X0178500Y0115213D03*
X0198500Y0115213D03*
X0208500Y0115213D03*
X0218500Y0115213D03*
X0218500Y0151787D03*
X0208500Y0151787D03*
X0198500Y0151787D03*
X0178500Y0151787D03*
X0168500Y0151787D03*
X0158500Y0151787D03*
X0138500Y0151787D03*
X0128500Y0151787D03*
X0118500Y0151787D03*
X0098500Y0151787D03*
X0088500Y0151787D03*
X0078500Y0151787D03*
D14*
X0099760Y0106000D03*
X0107240Y0106000D03*
X0139760Y0106000D03*
X0147240Y0106000D03*
X0179760Y0106000D03*
X0187240Y0106000D03*
X0219760Y0106000D03*
X0227240Y0106000D03*
D15*
X0198500Y0072240D03*
X0198500Y0064760D03*
X0158500Y0064760D03*
X0158500Y0072240D03*
X0118500Y0072240D03*
X0118500Y0064760D03*
X0078500Y0064760D03*
X0078500Y0072240D03*
D16*
X0311000Y0074000D02*
X0311000Y0068000D01*
X0321000Y0068000D02*
X0321000Y0074000D01*
X0331000Y0074000D02*
X0331000Y0068000D01*
X0331000Y0083000D02*
X0331000Y0089000D01*
X0321000Y0089000D02*
X0321000Y0083000D01*
X0311000Y0083000D02*
X0311000Y0089000D01*
X0311000Y0098000D02*
X0311000Y0104000D01*
X0321000Y0104000D02*
X0321000Y0098000D01*
X0331000Y0098000D02*
X0331000Y0104000D01*
M02*
